<svg xmlns="http://www.w3.org/2000/svg" xmlns:xlink="http://www.w3.org/1999/xlink" width="1630" height="494.2"><rect width="1630" height="494.2" rx="5" ry="5" class="a"/><svg y="0%" x="0%"><circle cx="20" cy="20" r="6" fill="#ff5f58"/><circle cx="40" cy="20" r="6" fill="#ffbd2e"/><circle cx="60" cy="20" r="6" fill="#18c132"/></svg><svg height="434.2" viewBox="0 0 159 43.42" width="1590" x="15" xmlns="http://www.w3.org/2000/svg" xmlns:xlink="http://www.w3.org/1999/xlink" y="50"><style>@keyframes j{0%{transform:translateX(0)}6.8%{transform:translateX(-159px)}6.97%{transform:translateX(-318px)}9%{transform:translateX(-477px)}9.73%{transform:translateX(-636px)}10.49%{transform:translateX(-795px)}11.39%{transform:translateX(-954px)}12.17%{transform:translateX(-1113px)}14.31%{transform:translateX(-1272px)}15.74%{transform:translateX(-1431px)}16.24%{transform:translateX(-1590px)}16.75%{transform:translateX(-1749px)}17.57%{transform:translateX(-1908px)}18.08%{transform:translateX(-2067px)}20.42%{transform:translateX(-2226px)}27.81%{transform:translateX(-2385px)}29.51%{transform:translateX(-2544px)}31.44%{transform:translateX(-2703px)}31.45%{transform:translateX(-2862px)}34.17%{transform:translateX(-3021px)}35.76%{transform:translateX(-3180px)}36.23%{transform:translateX(-3339px)}37.07%{transform:translateX(-3498px)}37.44%{transform:translateX(-3657px)}38.03%{transform:translateX(-3816px)}39.15%{transform:translateX(-4293px)}44.24%{transform:translateX(-4452px)}45.81%{transform:translateX(-4770px)}49.5%{transform:translateX(-4929px)}51.53%{transform:translateX(-5247px)}53.93%{transform:translateX(-5406px)}55.25%{transform:translateX(-5565px)}55.75%{transform:translateX(-5724px)}56.45%{transform:translateX(-5883px)}56.69%{transform:translateX(-6042px)}57.27%{transform:translateX(-6201px)}59.57%{transform:translateX(-6360px)}61.01%{transform:translateX(-6678px)}66.65%{transform:translateX(-6837px)}66.66%{transform:translateX(-6996px)}70.34%{transform:translateX(-7155px)}71.57%{transform:translateX(-7473px)}74.66%{transform:translateX(-7632px)}75.74%{transform:translateX(-7950px)}78.24%{transform:translateX(-8109px)}80.05%{transform:translateX(-8268px)}80.43%{transform:translateX(-8427px)}81.05%{transform:translateX(-8586px)}81.34%{transform:translateX(-8745px)}81.85%{transform:translateX(-8904px)}84.68%{transform:translateX(-9063px)}85.65%{transform:translateX(-9381px)}89.91%{transform:translateX(-9540px)}90.8%{transform:translateX(-9699px)}91.34%{transform:translateX(-9858px)}93.09%{transform:translateX(-10017px)}94.62%{transform:translateX(-10176px)}94.88%{transform:translateX(-10335px)}95.05%{transform:translateX(-10494px)}to{transform:translateX(-10653px)}}.a{fill:#282d35}.f{fill:#b9c0cb}.g{fill:#a8cc8c}.l{fill:#b9c0cb;text-decoration:underline}.m{fill:#e88388;font-weight:700}</style><g font-size="1.67" font-family="Monaco,Consolas,Menlo,'Bitstream Vera Sans Mono','Powerline Symbols',monospace"><defs><symbol id="1"><text y="1.67" class="f">Evas-MBP%</text></symbol><symbol id="2"><text y="1.67" class="f">Evas-MBP%</text><text x="10.02" y="1.67" class="g">codeowners-checker</text><text x="29.058" y="1.67" class="f">check</text></symbol><symbol id="3"><text y="1.67" class="f">File</text><text x="5.01" y="1.67" class="f">added:</text><text x="12.024" y="1.67" class="f">&quot;app/controllers/application_controller.rb&quot;.</text><text x="57.114" y="1.67" class="f">Add</text><text x="61.122" y="1.67" class="f">owner</text><text x="67.134" y="1.67" class="f">to</text><text x="70.14" y="1.67" class="f">the</text><text x="74.148" y="1.67" class="f">CODEOWNERS</text><text x="85.17" y="1.67" class="f">file?</text><text x="91.182" y="1.67" class="f">y</text></symbol><symbol id="4"><text y="1.67" class="f">File</text><text x="5.01" y="1.67" class="f">owner(s):</text></symbol><symbol id="5"><text y="1.67" class="f">File</text><text x="5.01" y="1.67" class="f">owner(s):</text><text x="16.032" y="1.67" class="f">@</text></symbol><symbol id="6"><text y="1.67" class="f">File</text><text x="5.01" y="1.67" class="f">owner(s):</text><text x="16.032" y="1.67" class="f">@o</text></symbol><symbol id="7"><text y="1.67" class="f">File</text><text x="5.01" y="1.67" class="f">owner(s):</text><text x="16.032" y="1.67" class="f">@ow</text></symbol><symbol id="8"><text y="1.67" class="f">File</text><text x="5.01" y="1.67" class="f">owner(s):</text><text x="16.032" y="1.67" class="f">@own</text></symbol><symbol id="9"><text y="1.67" class="f">File</text><text x="5.01" y="1.67" class="f">owner(s):</text><text x="16.032" y="1.67" class="f">@owne</text></symbol><symbol id="10"><text y="1.67" class="f">File</text><text x="5.01" y="1.67" class="f">owner(s):</text><text x="16.032" y="1.67" class="f">@owner</text></symbol><symbol id="11"><text y="1.67" class="f">Possible</text><text x="9.018" y="1.67" class="f">groups</text><text x="16.032" y="1.67" class="f">to</text><text x="19.038" y="1.67" class="f">which</text><text x="25.05" y="1.67" class="f">the</text><text x="29.058" y="1.67" class="f">pattern</text><text x="37.074" y="1.67" class="f">belongs:</text></symbol><symbol id="12"><text y="1.67" class="f">1</text><text x="2.004" y="1.67" class="f">-</text><text x="4.008" y="1.67" class="f">#</text><text x="6.012" y="1.67" class="f">Project</text><text x="14.028" y="1.67" class="f">1</text></symbol><symbol id="13"><text y="1.67" class="f">2</text><text x="2.004" y="1.67" class="f">-</text><text x="4.008" y="1.67" class="f">#</text><text x="6.012" y="1.67" class="f">Project</text><text x="14.028" y="1.67" class="f">2</text></symbol><symbol id="14"><text y="1.67" class="f">Choose</text><text x="7.014" y="1.67" class="f">group:</text></symbol><symbol id="15"><text y="1.67" class="f">Choose</text><text x="7.014" y="1.67" class="f">group:</text><text x="15.03" y="1.67" class="f">2</text></symbol><symbol id="16"><text y="1.67" class="f">File</text><text x="5.01" y="1.67" class="f">added:</text><text x="12.024" y="1.67" class="f">&quot;app/models/user.rb&quot;.</text><text x="34.068" y="1.67" class="f">Add</text><text x="38.076" y="1.67" class="f">owner</text><text x="44.088" y="1.67" class="f">to</text><text x="47.094" y="1.67" class="f">the</text><text x="51.102" y="1.67" class="f">CODEOWNERS</text><text x="62.124" y="1.67" class="f">file?</text><text x="68.136" y="1.67" class="f">y</text></symbol><symbol id="17"><text y="1.67" class="f">File</text><text x="5.01" y="1.67" class="f">owner(s):</text><text x="16.032" y="1.67" class="f">@owner2</text></symbol><symbol id="18"><text y="1.67" class="f">1</text><text x="2.004" y="1.67" class="f">-</text><text x="4.008" y="1.67" class="f">#</text><text x="6.012" y="1.67" class="f">Other</text></symbol><symbol id="19"><text y="1.67" class="f">Add</text><text x="4.008" y="1.67" class="f">to</text><text x="7.014" y="1.67" class="f">the</text><text x="11.022" y="1.67" class="f">end</text><text x="15.03" y="1.67" class="f">of</text><text x="18.036" y="1.67" class="f">the</text><text x="22.044" y="1.67" class="f">CODEOWNERS</text><text x="33.066" y="1.67" class="f">file?</text></symbol><symbol id="20"><text y="1.67" class="f">Add</text><text x="4.008" y="1.67" class="f">to</text><text x="7.014" y="1.67" class="f">the</text><text x="11.022" y="1.67" class="f">end</text><text x="15.03" y="1.67" class="f">of</text><text x="18.036" y="1.67" class="f">the</text><text x="22.044" y="1.67" class="f">CODEOWNERS</text><text x="33.066" y="1.67" class="f">file?</text><text x="39.078" y="1.67" class="f">y</text></symbol><symbol id="21"><text y="1.67" class="f">File</text><text x="5.01" y="1.67" class="f">added:</text><text x="12.024" y="1.67" class="f">&quot;config.ru&quot;.</text><text x="25.05" y="1.67" class="f">Add</text><text x="29.058" y="1.67" class="f">owner</text><text x="35.07" y="1.67" class="f">to</text><text x="38.076" y="1.67" class="f">the</text><text x="42.084" y="1.67" class="f">CODEOWNERS</text><text x="53.106" y="1.67" class="f">file?</text><text x="59.118" y="1.67" class="f">y</text></symbol><symbol id="22"><text y="1.67" class="f">File</text><text x="5.01" y="1.67" class="f">owner(s):</text><text x="16.032" y="1.67" class="f">@owner3</text></symbol><symbol id="23"><text y="1.67" class="f">Commit</text><text x="7.014" y="1.67" class="f">changes?</text><text x="16.032" y="1.67" class="f">y</text></symbol><symbol id="a"><path fill="transparent" d="M0 0h159v21H0z"/></symbol><symbol id="b"><path fill="#6f7683" d="M0 0h1.102v2.171H0z"/></symbol></defs><path class="a" d="M0 0h159v43.42H0z"/><g style="animation-duration:22.070527s;animation-iteration-count:infinite;animation-name:j;animation-timing-function:steps(1,end)"><svg width="10812"><svg><use xlink:href="#a"/><use xlink:href="#b" x="-.004"/></svg><svg x="159"><use xlink:href="#a"/><use xlink:href="#b" x="-.004"/></svg><svg x="318"><use xlink:href="#a"/><use xlink:href="#b" x="9.996"/><use xlink:href="#1"/></svg><svg x="477"><use xlink:href="#a"/><use xlink:href="#b" x="10.996"/><text y="1.67" class="f">Evas-MBP%</text><text x="10.02" y="1.67" class="l">c</text></svg><svg x="636"><use xlink:href="#a"/><use xlink:href="#b" x="11.996"/><text y="1.67" class="f">Evas-MBP%</text><text x="10.02" y="1.67" class="l">co</text></svg><svg x="795"><use xlink:href="#a"/><use xlink:href="#b" x="12.996"/><text y="1.67" class="f">Evas-MBP%</text><text x="10.02" y="1.67" class="m">cod</text></svg><svg x="954"><use xlink:href="#a"/><use xlink:href="#b" x="13.996"/><text y="1.67" class="f">Evas-MBP%</text><text x="10.02" y="1.67" class="g">code</text></svg><svg x="1113"><use xlink:href="#a"/><use xlink:href="#b" x="14.996"/><text y="1.67" class="f">Evas-MBP%</text><text x="10.02" y="1.67" class="m">codeo</text></svg><svg x="1272"><use xlink:href="#a"/><use xlink:href="#b" x="28.996"/><text y="1.67" class="f">Evas-MBP%</text><text x="10.02" y="1.67" class="g">codeowners-checker</text></svg><svg x="1431"><use xlink:href="#a"/><use xlink:href="#b" x="29.996"/><text y="1.67" class="f">Evas-MBP%</text><text x="10.02" y="1.67" class="g">codeowners-checker</text><text x="29.058" y="1.67" class="l">c</text></svg><svg x="1590"><use xlink:href="#a"/><use xlink:href="#b" x="30.996"/><text y="1.67" class="f">Evas-MBP%</text><text x="10.02" y="1.67" class="g">codeowners-checker</text><text x="29.058" y="1.67" class="f">ch</text></svg><svg x="1749"><use xlink:href="#a"/><use xlink:href="#b" x="31.996"/><text y="1.67" class="f">Evas-MBP%</text><text x="10.02" y="1.67" class="g">codeowners-checker</text><text x="29.058" y="1.67" class="f">che</text></svg><svg x="1908"><use xlink:href="#a"/><use xlink:href="#b" x="32.996"/><text y="1.67" class="f">Evas-MBP%</text><text x="10.02" y="1.67" class="g">codeowners-checker</text><text x="29.058" y="1.67" class="f">chec</text></svg><svg x="2067"><use xlink:href="#a"/><use xlink:href="#b" x="33.996"/><use xlink:href="#2"/></svg><svg x="2226"><use xlink:href="#a"/><use xlink:href="#b" x="-.004" y="2.146"/><use xlink:href="#2"/></svg><svg x="2385"><use xlink:href="#a"/><use xlink:href="#b" x="90.996" y="2.146"/><use xlink:href="#2"/><text y="3.841" class="f">File</text><text x="5.01" y="3.841" class="f">added:</text><text x="12.024" y="3.841" class="f">&quot;app/controllers/application_controller.rb&quot;.</text><text x="57.114" y="3.841" class="f">Add</text><text x="61.122" y="3.841" class="f">owner</text><text x="67.134" y="3.841" class="f">to</text><text x="70.14" y="3.841" class="f">the</text><text x="74.148" y="3.841" class="f">CODEOWNERS</text><text x="85.17" y="3.841" class="f">file?</text></svg><svg x="2544"><use xlink:href="#a"/><use xlink:href="#b" x="91.996" y="2.146"/><use xlink:href="#2"/><use xlink:href="#3" y="2.171"/></svg><svg x="2703"><use xlink:href="#a"/><use xlink:href="#b" x="-.004" y="4.317"/><use xlink:href="#2"/><use xlink:href="#3" y="2.171"/></svg><svg x="2862"><use xlink:href="#a"/><use xlink:href="#b" x="15.996" y="4.317"/><use xlink:href="#2"/><use xlink:href="#3" y="2.171"/><use xlink:href="#4" y="4.342"/></svg><svg x="3021"><use xlink:href="#a"/><use xlink:href="#b" x="16.996" y="4.317"/><use xlink:href="#2"/><use xlink:href="#3" y="2.171"/><use xlink:href="#5" y="4.342"/></svg><svg x="3180"><use xlink:href="#a"/><use xlink:href="#b" x="17.996" y="4.317"/><use xlink:href="#2"/><use xlink:href="#3" y="2.171"/><use xlink:href="#6" y="4.342"/></svg><svg x="3339"><use xlink:href="#a"/><use xlink:href="#b" x="18.996" y="4.317"/><use xlink:href="#2"/><use xlink:href="#3" y="2.171"/><use xlink:href="#7" y="4.342"/></svg><svg x="3498"><use xlink:href="#a"/><use xlink:href="#b" x="19.996" y="4.317"/><use xlink:href="#2"/><use xlink:href="#3" y="2.171"/><use xlink:href="#8" y="4.342"/></svg><svg x="3657"><use xlink:href="#a"/><use xlink:href="#b" x="20.996" y="4.317"/><use xlink:href="#2"/><use xlink:href="#3" y="2.171"/><use xlink:href="#9" y="4.342"/></svg><svg x="3816"><use xlink:href="#a"/><use xlink:href="#b" x="21.996" y="4.317"/><use xlink:href="#2"/><use xlink:href="#3" y="2.171"/><use xlink:href="#10" y="4.342"/></svg><svg x="3975"><use xlink:href="#a"/><use xlink:href="#b" x="-.004" y="6.488"/><use xlink:href="#2"/><use xlink:href="#3" y="2.171"/><use xlink:href="#10" y="4.342"/></svg><svg x="4134"><use xlink:href="#a"/><use xlink:href="#b" x="-.004" y="10.83"/><use xlink:href="#2"/><use xlink:href="#3" y="2.171"/><use xlink:href="#10" y="4.342"/><use xlink:href="#11" y="6.513"/><use xlink:href="#12" y="8.684"/></svg><svg x="4293"><use xlink:href="#a"/><use xlink:href="#b" x="14.996" y="13.001"/><use xlink:href="#2"/><use xlink:href="#3" y="2.171"/><use xlink:href="#10" y="4.342"/><use xlink:href="#11" y="6.513"/><use xlink:href="#12" y="8.684"/><use xlink:href="#13" y="10.855"/><use xlink:href="#14" y="13.026"/></svg><svg x="4452"><use xlink:href="#a"/><use xlink:href="#b" x="15.996" y="13.001"/><use xlink:href="#2"/><use xlink:href="#3" y="2.171"/><use xlink:href="#10" y="4.342"/><use xlink:href="#11" y="6.513"/><use xlink:href="#12" y="8.684"/><use xlink:href="#13" y="10.855"/><use xlink:href="#15" y="13.026"/></svg><svg x="4611"><use xlink:href="#a"/><use xlink:href="#b" x="-.004" y="15.172"/><use xlink:href="#2"/><use xlink:href="#3" y="2.171"/><use xlink:href="#10" y="4.342"/><use xlink:href="#11" y="6.513"/><use xlink:href="#12" y="8.684"/><use xlink:href="#13" y="10.855"/><use xlink:href="#15" y="13.026"/></svg><svg x="4770"><use xlink:href="#a"/><use xlink:href="#b" x="67.996" y="15.172"/><use xlink:href="#2"/><use xlink:href="#3" y="2.171"/><use xlink:href="#10" y="4.342"/><use xlink:href="#11" y="6.513"/><use xlink:href="#12" y="8.684"/><use xlink:href="#13" y="10.855"/><use xlink:href="#15" y="13.026"/><text y="16.867" class="f">File</text><text x="5.01" y="16.867" class="f">added:</text><text x="12.024" y="16.867" class="f">&quot;app/models/user.rb&quot;.</text><text x="34.068" y="16.867" class="f">Add</text><text x="38.076" y="16.867" class="f">owner</text><text x="44.088" y="16.867" class="f">to</text><text x="47.094" y="16.867" class="f">the</text><text x="51.102" y="16.867" class="f">CODEOWNERS</text><text x="62.124" y="16.867" class="f">file?</text></svg><svg x="4929"><use xlink:href="#a"/><use xlink:href="#b" x="68.996" y="15.172"/><use xlink:href="#2"/><use xlink:href="#3" y="2.171"/><use xlink:href="#10" y="4.342"/><use xlink:href="#11" y="6.513"/><use xlink:href="#12" y="8.684"/><use xlink:href="#13" y="10.855"/><use xlink:href="#15" y="13.026"/><use xlink:href="#16" y="15.197"/></svg><svg x="5088"><use xlink:href="#a"/><use xlink:href="#b" x="-.004" y="17.343"/><use xlink:href="#2"/><use xlink:href="#3" y="2.171"/><use xlink:href="#10" y="4.342"/><use xlink:href="#11" y="6.513"/><use xlink:href="#12" y="8.684"/><use xlink:href="#13" y="10.855"/><use xlink:href="#15" y="13.026"/><use xlink:href="#16" y="15.197"/></svg><svg x="5247"><use xlink:href="#a"/><use xlink:href="#b" x="15.996" y="17.343"/><use xlink:href="#2"/><use xlink:href="#3" y="2.171"/><use xlink:href="#10" y="4.342"/><use xlink:href="#11" y="6.513"/><use xlink:href="#12" y="8.684"/><use xlink:href="#13" y="10.855"/><use xlink:href="#15" y="13.026"/><use xlink:href="#16" y="15.197"/><use xlink:href="#4" y="17.368"/></svg><svg x="5406"><use xlink:href="#a"/><use xlink:href="#b" x="16.996" y="17.343"/><use xlink:href="#2"/><use xlink:href="#3" y="2.171"/><use xlink:href="#10" y="4.342"/><use xlink:href="#11" y="6.513"/><use xlink:href="#12" y="8.684"/><use xlink:href="#13" y="10.855"/><use xlink:href="#15" y="13.026"/><use xlink:href="#16" y="15.197"/><use xlink:href="#5" y="17.368"/></svg><svg x="5565"><use xlink:href="#a"/><use xlink:href="#b" x="17.996" y="17.343"/><use xlink:href="#2"/><use xlink:href="#3" y="2.171"/><use xlink:href="#10" y="4.342"/><use xlink:href="#11" y="6.513"/><use xlink:href="#12" y="8.684"/><use xlink:href="#13" y="10.855"/><use xlink:href="#15" y="13.026"/><use xlink:href="#16" y="15.197"/><use xlink:href="#6" y="17.368"/></svg><svg x="5724"><use xlink:href="#a"/><use xlink:href="#b" x="18.996" y="17.343"/><use xlink:href="#2"/><use xlink:href="#3" y="2.171"/><use xlink:href="#10" y="4.342"/><use xlink:href="#11" y="6.513"/><use xlink:href="#12" y="8.684"/><use xlink:href="#13" y="10.855"/><use xlink:href="#15" y="13.026"/><use xlink:href="#16" y="15.197"/><use xlink:href="#7" y="17.368"/></svg><svg x="5883"><use xlink:href="#a"/><use xlink:href="#b" x="19.996" y="17.343"/><use xlink:href="#2"/><use xlink:href="#3" y="2.171"/><use xlink:href="#10" y="4.342"/><use xlink:href="#11" y="6.513"/><use xlink:href="#12" y="8.684"/><use xlink:href="#13" y="10.855"/><use xlink:href="#15" y="13.026"/><use xlink:href="#16" y="15.197"/><use xlink:href="#8" y="17.368"/></svg><svg x="6042"><use xlink:href="#a"/><use xlink:href="#b" x="20.996" y="17.343"/><use xlink:href="#2"/><use xlink:href="#3" y="2.171"/><use xlink:href="#10" y="4.342"/><use xlink:href="#11" y="6.513"/><use xlink:href="#12" y="8.684"/><use xlink:href="#13" y="10.855"/><use xlink:href="#15" y="13.026"/><use xlink:href="#16" y="15.197"/><use xlink:href="#9" y="17.368"/></svg><svg x="6201"><use xlink:href="#a"/><use xlink:href="#b" x="21.996" y="17.343"/><use xlink:href="#2"/><use xlink:href="#3" y="2.171"/><use xlink:href="#10" y="4.342"/><use xlink:href="#11" y="6.513"/><use xlink:href="#12" y="8.684"/><use xlink:href="#13" y="10.855"/><use xlink:href="#15" y="13.026"/><use xlink:href="#16" y="15.197"/><use xlink:href="#10" y="17.368"/></svg><svg x="6360"><use xlink:href="#a"/><use xlink:href="#b" x="22.996" y="17.343"/><use xlink:href="#2"/><use xlink:href="#3" y="2.171"/><use xlink:href="#10" y="4.342"/><use xlink:href="#11" y="6.513"/><use xlink:href="#12" y="8.684"/><use xlink:href="#13" y="10.855"/><use xlink:href="#15" y="13.026"/><use xlink:href="#16" y="15.197"/><use xlink:href="#17" y="17.368"/></svg><svg x="6519"><use xlink:href="#a"/><use xlink:href="#b" x="-.004" y="19.514"/><use xlink:href="#2"/><use xlink:href="#3" y="2.171"/><use xlink:href="#10" y="4.342"/><use xlink:href="#11" y="6.513"/><use xlink:href="#12" y="8.684"/><use xlink:href="#13" y="10.855"/><use xlink:href="#15" y="13.026"/><use xlink:href="#16" y="15.197"/><use xlink:href="#17" y="17.368"/></svg><svg x="6678"><use xlink:href="#a"/><use xlink:href="#b" x="14.996" y="23.856"/><use xlink:href="#2"/><use xlink:href="#3" y="2.171"/><use xlink:href="#10" y="4.342"/><use xlink:href="#11" y="6.513"/><use xlink:href="#12" y="8.684"/><use xlink:href="#13" y="10.855"/><use xlink:href="#15" y="13.026"/><use xlink:href="#16" y="15.197"/><use xlink:href="#17" y="17.368"/><use xlink:href="#11" y="19.539"/><use xlink:href="#18" y="21.71"/><use xlink:href="#14" y="23.881"/></svg><svg x="6837"><use xlink:href="#a"/><use xlink:href="#b" x="-.004" y="26.027"/><use xlink:href="#2"/><use xlink:href="#3" y="2.171"/><use xlink:href="#10" y="4.342"/><use xlink:href="#11" y="6.513"/><use xlink:href="#12" y="8.684"/><use xlink:href="#13" y="10.855"/><use xlink:href="#15" y="13.026"/><use xlink:href="#16" y="15.197"/><use xlink:href="#17" y="17.368"/><use xlink:href="#11" y="19.539"/><use xlink:href="#18" y="21.71"/><use xlink:href="#14" y="23.881"/></svg><svg x="6996"><use xlink:href="#a"/><use xlink:href="#b" x="38.996" y="26.027"/><use xlink:href="#2"/><use xlink:href="#3" y="2.171"/><use xlink:href="#10" y="4.342"/><use xlink:href="#11" y="6.513"/><use xlink:href="#12" y="8.684"/><use xlink:href="#13" y="10.855"/><use xlink:href="#15" y="13.026"/><use xlink:href="#16" y="15.197"/><use xlink:href="#17" y="17.368"/><use xlink:href="#11" y="19.539"/><use xlink:href="#18" y="21.71"/><use xlink:href="#14" y="23.881"/><use xlink:href="#19" y="26.052"/></svg><svg x="7155"><use xlink:href="#a"/><use xlink:href="#b" x="39.996" y="26.027"/><use xlink:href="#2"/><use xlink:href="#3" y="2.171"/><use xlink:href="#10" y="4.342"/><use xlink:href="#11" y="6.513"/><use xlink:href="#12" y="8.684"/><use xlink:href="#13" y="10.855"/><use xlink:href="#15" y="13.026"/><use xlink:href="#16" y="15.197"/><use xlink:href="#17" y="17.368"/><use xlink:href="#11" y="19.539"/><use xlink:href="#18" y="21.71"/><use xlink:href="#14" y="23.881"/><use xlink:href="#20" y="26.052"/></svg><svg x="7314"><use xlink:href="#a"/><use xlink:href="#b" x="-.004" y="28.198"/><use xlink:href="#2"/><use xlink:href="#3" y="2.171"/><use xlink:href="#10" y="4.342"/><use xlink:href="#11" y="6.513"/><use xlink:href="#12" y="8.684"/><use xlink:href="#13" y="10.855"/><use xlink:href="#15" y="13.026"/><use xlink:href="#16" y="15.197"/><use xlink:href="#17" y="17.368"/><use xlink:href="#11" y="19.539"/><use xlink:href="#18" y="21.71"/><use xlink:href="#14" y="23.881"/><use xlink:href="#20" y="26.052"/></svg><svg x="7473"><use xlink:href="#a"/><use xlink:href="#b" x="58.996" y="28.198"/><use xlink:href="#2"/><use xlink:href="#3" y="2.171"/><use xlink:href="#10" y="4.342"/><use xlink:href="#11" y="6.513"/><use xlink:href="#12" y="8.684"/><use xlink:href="#13" y="10.855"/><use xlink:href="#15" y="13.026"/><use xlink:href="#16" y="15.197"/><use xlink:href="#17" y="17.368"/><use xlink:href="#11" y="19.539"/><use xlink:href="#18" y="21.71"/><use xlink:href="#14" y="23.881"/><use xlink:href="#20" y="26.052"/><text y="29.893" class="f">File</text><text x="5.01" y="29.893" class="f">added:</text><text x="12.024" y="29.893" class="f">&quot;config.ru&quot;.</text><text x="25.05" y="29.893" class="f">Add</text><text x="29.058" y="29.893" class="f">owner</text><text x="35.07" y="29.893" class="f">to</text><text x="38.076" y="29.893" class="f">the</text><text x="42.084" y="29.893" class="f">CODEOWNERS</text><text x="53.106" y="29.893" class="f">file?</text></svg><svg x="7632"><use xlink:href="#a"/><use xlink:href="#b" x="59.996" y="28.198"/><use xlink:href="#2"/><use xlink:href="#3" y="2.171"/><use xlink:href="#10" y="4.342"/><use xlink:href="#11" y="6.513"/><use xlink:href="#12" y="8.684"/><use xlink:href="#13" y="10.855"/><use xlink:href="#15" y="13.026"/><use xlink:href="#16" y="15.197"/><use xlink:href="#17" y="17.368"/><use xlink:href="#11" y="19.539"/><use xlink:href="#18" y="21.71"/><use xlink:href="#14" y="23.881"/><use xlink:href="#20" y="26.052"/><use xlink:href="#21" y="28.223"/></svg><svg x="7791"><use xlink:href="#a"/><use xlink:href="#b" x="-.004" y="30.369"/><use xlink:href="#2"/><use xlink:href="#3" y="2.171"/><use xlink:href="#10" y="4.342"/><use xlink:href="#11" y="6.513"/><use xlink:href="#12" y="8.684"/><use xlink:href="#13" y="10.855"/><use xlink:href="#15" y="13.026"/><use xlink:href="#16" y="15.197"/><use xlink:href="#17" y="17.368"/><use xlink:href="#11" y="19.539"/><use xlink:href="#18" y="21.71"/><use xlink:href="#14" y="23.881"/><use xlink:href="#20" y="26.052"/><use xlink:href="#21" y="28.223"/></svg><svg x="7950"><use xlink:href="#a"/><use xlink:href="#b" x="15.996" y="30.369"/><use xlink:href="#2"/><use xlink:href="#3" y="2.171"/><use xlink:href="#10" y="4.342"/><use xlink:href="#11" y="6.513"/><use xlink:href="#12" y="8.684"/><use xlink:href="#13" y="10.855"/><use xlink:href="#15" y="13.026"/><use xlink:href="#16" y="15.197"/><use xlink:href="#17" y="17.368"/><use xlink:href="#11" y="19.539"/><use xlink:href="#18" y="21.71"/><use xlink:href="#14" y="23.881"/><use xlink:href="#20" y="26.052"/><use xlink:href="#21" y="28.223"/><use xlink:href="#4" y="30.394"/></svg><svg x="8109"><use xlink:href="#a"/><use xlink:href="#b" x="16.996" y="30.369"/><use xlink:href="#2"/><use xlink:href="#3" y="2.171"/><use xlink:href="#10" y="4.342"/><use xlink:href="#11" y="6.513"/><use xlink:href="#12" y="8.684"/><use xlink:href="#13" y="10.855"/><use xlink:href="#15" y="13.026"/><use xlink:href="#16" y="15.197"/><use xlink:href="#17" y="17.368"/><use xlink:href="#11" y="19.539"/><use xlink:href="#18" y="21.71"/><use xlink:href="#14" y="23.881"/><use xlink:href="#20" y="26.052"/><use xlink:href="#21" y="28.223"/><use xlink:href="#5" y="30.394"/></svg><svg x="8268"><use xlink:href="#a"/><use xlink:href="#b" x="17.996" y="30.369"/><use xlink:href="#2"/><use xlink:href="#3" y="2.171"/><use xlink:href="#10" y="4.342"/><use xlink:href="#11" y="6.513"/><use xlink:href="#12" y="8.684"/><use xlink:href="#13" y="10.855"/><use xlink:href="#15" y="13.026"/><use xlink:href="#16" y="15.197"/><use xlink:href="#17" y="17.368"/><use xlink:href="#11" y="19.539"/><use xlink:href="#18" y="21.71"/><use xlink:href="#14" y="23.881"/><use xlink:href="#20" y="26.052"/><use xlink:href="#21" y="28.223"/><use xlink:href="#6" y="30.394"/></svg><svg x="8427"><use xlink:href="#a"/><use xlink:href="#b" x="18.996" y="30.369"/><use xlink:href="#2"/><use xlink:href="#3" y="2.171"/><use xlink:href="#10" y="4.342"/><use xlink:href="#11" y="6.513"/><use xlink:href="#12" y="8.684"/><use xlink:href="#13" y="10.855"/><use xlink:href="#15" y="13.026"/><use xlink:href="#16" y="15.197"/><use xlink:href="#17" y="17.368"/><use xlink:href="#11" y="19.539"/><use xlink:href="#18" y="21.71"/><use xlink:href="#14" y="23.881"/><use xlink:href="#20" y="26.052"/><use xlink:href="#21" y="28.223"/><use xlink:href="#7" y="30.394"/></svg><svg x="8586"><use xlink:href="#a"/><use xlink:href="#b" x="19.996" y="30.369"/><use xlink:href="#2"/><use xlink:href="#3" y="2.171"/><use xlink:href="#10" y="4.342"/><use xlink:href="#11" y="6.513"/><use xlink:href="#12" y="8.684"/><use xlink:href="#13" y="10.855"/><use xlink:href="#15" y="13.026"/><use xlink:href="#16" y="15.197"/><use xlink:href="#17" y="17.368"/><use xlink:href="#11" y="19.539"/><use xlink:href="#18" y="21.71"/><use xlink:href="#14" y="23.881"/><use xlink:href="#20" y="26.052"/><use xlink:href="#21" y="28.223"/><use xlink:href="#8" y="30.394"/></svg><svg x="8745"><use xlink:href="#a"/><use xlink:href="#b" x="20.996" y="30.369"/><use xlink:href="#2"/><use xlink:href="#3" y="2.171"/><use xlink:href="#10" y="4.342"/><use xlink:href="#11" y="6.513"/><use xlink:href="#12" y="8.684"/><use xlink:href="#13" y="10.855"/><use xlink:href="#15" y="13.026"/><use xlink:href="#16" y="15.197"/><use xlink:href="#17" y="17.368"/><use xlink:href="#11" y="19.539"/><use xlink:href="#18" y="21.71"/><use xlink:href="#14" y="23.881"/><use xlink:href="#20" y="26.052"/><use xlink:href="#21" y="28.223"/><use xlink:href="#9" y="30.394"/></svg><svg x="8904"><use xlink:href="#a"/><use xlink:href="#b" x="21.996" y="30.369"/><use xlink:href="#2"/><use xlink:href="#3" y="2.171"/><use xlink:href="#10" y="4.342"/><use xlink:href="#11" y="6.513"/><use xlink:href="#12" y="8.684"/><use xlink:href="#13" y="10.855"/><use xlink:href="#15" y="13.026"/><use xlink:href="#16" y="15.197"/><use xlink:href="#17" y="17.368"/><use xlink:href="#11" y="19.539"/><use xlink:href="#18" y="21.71"/><use xlink:href="#14" y="23.881"/><use xlink:href="#20" y="26.052"/><use xlink:href="#21" y="28.223"/><use xlink:href="#10" y="30.394"/></svg><svg x="9063"><use xlink:href="#a"/><use xlink:href="#b" x="22.996" y="30.369"/><use xlink:href="#2"/><use xlink:href="#3" y="2.171"/><use xlink:href="#10" y="4.342"/><use xlink:href="#11" y="6.513"/><use xlink:href="#12" y="8.684"/><use xlink:href="#13" y="10.855"/><use xlink:href="#15" y="13.026"/><use xlink:href="#16" y="15.197"/><use xlink:href="#17" y="17.368"/><use xlink:href="#11" y="19.539"/><use xlink:href="#18" y="21.71"/><use xlink:href="#14" y="23.881"/><use xlink:href="#20" y="26.052"/><use xlink:href="#21" y="28.223"/><use xlink:href="#22" y="30.394"/></svg><svg x="9222"><use xlink:href="#a"/><use xlink:href="#b" x="-.004" y="32.54"/><use xlink:href="#2"/><use xlink:href="#3" y="2.171"/><use xlink:href="#10" y="4.342"/><use xlink:href="#11" y="6.513"/><use xlink:href="#12" y="8.684"/><use xlink:href="#13" y="10.855"/><use xlink:href="#15" y="13.026"/><use xlink:href="#16" y="15.197"/><use xlink:href="#17" y="17.368"/><use xlink:href="#11" y="19.539"/><use xlink:href="#18" y="21.71"/><use xlink:href="#14" y="23.881"/><use xlink:href="#20" y="26.052"/><use xlink:href="#21" y="28.223"/><use xlink:href="#22" y="30.394"/></svg><svg x="9381"><use xlink:href="#a"/><use xlink:href="#b" x="38.996" y="32.54"/><use xlink:href="#2"/><use xlink:href="#3" y="2.171"/><use xlink:href="#10" y="4.342"/><use xlink:href="#11" y="6.513"/><use xlink:href="#12" y="8.684"/><use xlink:href="#13" y="10.855"/><use xlink:href="#15" y="13.026"/><use xlink:href="#16" y="15.197"/><use xlink:href="#17" y="17.368"/><use xlink:href="#11" y="19.539"/><use xlink:href="#18" y="21.71"/><use xlink:href="#14" y="23.881"/><use xlink:href="#20" y="26.052"/><use xlink:href="#21" y="28.223"/><use xlink:href="#22" y="30.394"/><use xlink:href="#19" y="32.565"/></svg><svg x="9540"><use xlink:href="#a"/><use xlink:href="#b" x="39.996" y="32.54"/><use xlink:href="#2"/><use xlink:href="#3" y="2.171"/><use xlink:href="#10" y="4.342"/><use xlink:href="#11" y="6.513"/><use xlink:href="#12" y="8.684"/><use xlink:href="#13" y="10.855"/><use xlink:href="#15" y="13.026"/><use xlink:href="#16" y="15.197"/><use xlink:href="#17" y="17.368"/><use xlink:href="#11" y="19.539"/><use xlink:href="#18" y="21.71"/><use xlink:href="#14" y="23.881"/><use xlink:href="#20" y="26.052"/><use xlink:href="#21" y="28.223"/><use xlink:href="#22" y="30.394"/><use xlink:href="#20" y="32.565"/></svg><svg x="9699"><use xlink:href="#a"/><use xlink:href="#b" x="-.004" y="34.711"/><use xlink:href="#2"/><use xlink:href="#3" y="2.171"/><use xlink:href="#10" y="4.342"/><use xlink:href="#11" y="6.513"/><use xlink:href="#12" y="8.684"/><use xlink:href="#13" y="10.855"/><use xlink:href="#15" y="13.026"/><use xlink:href="#16" y="15.197"/><use xlink:href="#17" y="17.368"/><use xlink:href="#11" y="19.539"/><use xlink:href="#18" y="21.71"/><use xlink:href="#14" y="23.881"/><use xlink:href="#20" y="26.052"/><use xlink:href="#21" y="28.223"/><use xlink:href="#22" y="30.394"/><use xlink:href="#20" y="32.565"/></svg><svg x="9858"><use xlink:href="#a"/><use xlink:href="#b" x="15.996" y="34.711"/><use xlink:href="#2"/><use xlink:href="#3" y="2.171"/><use xlink:href="#10" y="4.342"/><use xlink:href="#11" y="6.513"/><use xlink:href="#12" y="8.684"/><use xlink:href="#13" y="10.855"/><use xlink:href="#15" y="13.026"/><use xlink:href="#16" y="15.197"/><use xlink:href="#17" y="17.368"/><use xlink:href="#11" y="19.539"/><use xlink:href="#18" y="21.71"/><use xlink:href="#14" y="23.881"/><use xlink:href="#20" y="26.052"/><use xlink:href="#21" y="28.223"/><use xlink:href="#22" y="30.394"/><use xlink:href="#20" y="32.565"/><text y="36.406" class="f">Commit</text><text x="7.014" y="36.406" class="f">changes?</text></svg><svg x="10017"><use xlink:href="#a"/><use xlink:href="#b" x="16.996" y="34.711"/><use xlink:href="#2"/><use xlink:href="#3" y="2.171"/><use xlink:href="#10" y="4.342"/><use xlink:href="#11" y="6.513"/><use xlink:href="#12" y="8.684"/><use xlink:href="#13" y="10.855"/><use xlink:href="#15" y="13.026"/><use xlink:href="#16" y="15.197"/><use xlink:href="#17" y="17.368"/><use xlink:href="#11" y="19.539"/><use xlink:href="#18" y="21.71"/><use xlink:href="#14" y="23.881"/><use xlink:href="#20" y="26.052"/><use xlink:href="#21" y="28.223"/><use xlink:href="#22" y="30.394"/><use xlink:href="#20" y="32.565"/><use xlink:href="#23" y="34.736"/></svg><svg x="10176"><use xlink:href="#a"/><use xlink:href="#b" x="-.004" y="36.882"/><use xlink:href="#2"/><use xlink:href="#3" y="2.171"/><use xlink:href="#10" y="4.342"/><use xlink:href="#11" y="6.513"/><use xlink:href="#12" y="8.684"/><use xlink:href="#13" y="10.855"/><use xlink:href="#15" y="13.026"/><use xlink:href="#16" y="15.197"/><use xlink:href="#17" y="17.368"/><use xlink:href="#11" y="19.539"/><use xlink:href="#18" y="21.71"/><use xlink:href="#14" y="23.881"/><use xlink:href="#20" y="26.052"/><use xlink:href="#21" y="28.223"/><use xlink:href="#22" y="30.394"/><use xlink:href="#20" y="32.565"/><use xlink:href="#23" y="34.736"/></svg><svg x="10335"><use xlink:href="#a"/><use xlink:href="#b" x="-.004" y="36.882"/><use xlink:href="#2"/><use xlink:href="#3" y="2.171"/><use xlink:href="#10" y="4.342"/><use xlink:href="#11" y="6.513"/><use xlink:href="#12" y="8.684"/><use xlink:href="#13" y="10.855"/><use xlink:href="#15" y="13.026"/><use xlink:href="#16" y="15.197"/><use xlink:href="#17" y="17.368"/><use xlink:href="#11" y="19.539"/><use xlink:href="#18" y="21.71"/><use xlink:href="#14" y="23.881"/><use xlink:href="#20" y="26.052"/><use xlink:href="#21" y="28.223"/><use xlink:href="#22" y="30.394"/><use xlink:href="#20" y="32.565"/><use xlink:href="#23" y="34.736"/></svg><svg x="10494"><use xlink:href="#a"/><use xlink:href="#b" x="9.996" y="36.882"/><use xlink:href="#2"/><use xlink:href="#3" y="2.171"/><use xlink:href="#10" y="4.342"/><use xlink:href="#11" y="6.513"/><use xlink:href="#12" y="8.684"/><use xlink:href="#13" y="10.855"/><use xlink:href="#15" y="13.026"/><use xlink:href="#16" y="15.197"/><use xlink:href="#17" y="17.368"/><use xlink:href="#11" y="19.539"/><use xlink:href="#18" y="21.71"/><use xlink:href="#14" y="23.881"/><use xlink:href="#20" y="26.052"/><use xlink:href="#21" y="28.223"/><use xlink:href="#22" y="30.394"/><use xlink:href="#20" y="32.565"/><use xlink:href="#23" y="34.736"/><use xlink:href="#1" y="36.907"/></svg><svg x="10653"><use xlink:href="#a"/><use xlink:href="#b" x="-.004" y="39.053"/><use xlink:href="#2"/><use xlink:href="#3" y="2.171"/><use xlink:href="#10" y="4.342"/><use xlink:href="#11" y="6.513"/><use xlink:href="#12" y="8.684"/><use xlink:href="#13" y="10.855"/><use xlink:href="#15" y="13.026"/><use xlink:href="#16" y="15.197"/><use xlink:href="#17" y="17.368"/><use xlink:href="#11" y="19.539"/><use xlink:href="#18" y="21.71"/><use xlink:href="#14" y="23.881"/><use xlink:href="#20" y="26.052"/><use xlink:href="#21" y="28.223"/><use xlink:href="#22" y="30.394"/><use xlink:href="#20" y="32.565"/><use xlink:href="#23" y="34.736"/><use xlink:href="#1" y="36.907"/></svg></svg></g></g></svg></svg>