<svg xmlns="http://www.w3.org/2000/svg" xmlns:xlink="http://www.w3.org/1999/xlink" width="1350" height="559.33"><rect width="1350" height="559.33" rx="5" ry="5" class="a"/><svg y="0%" x="0%"><circle cx="20" cy="20" r="6" fill="#ff5f58"/><circle cx="40" cy="20" r="6" fill="#ffbd2e"/><circle cx="60" cy="20" r="6" fill="#18c132"/></svg><svg height="499.33" viewBox="0 0 131 49.933" width="1310" x="15" xmlns="http://www.w3.org/2000/svg" xmlns:xlink="http://www.w3.org/1999/xlink" y="50"><style>@keyframes j{0%{transform:translateX(0)}5.77%{transform:translateX(-131px)}5.91%{transform:translateX(-262px)}7.22%{transform:translateX(-393px)}7.84%{transform:translateX(-524px)}8.29%{transform:translateX(-655px)}8.9%{transform:translateX(-786px)}9.55%{transform:translateX(-917px)}10.2%{transform:translateX(-1048px)}12.57%{transform:translateX(-1179px)}14.02%{transform:translateX(-1310px)}15.87%{transform:translateX(-1441px)}16.16%{transform:translateX(-1572px)}16.83%{transform:translateX(-1703px)}17.22%{transform:translateX(-1834px)}18.26%{transform:translateX(-1965px)}26.12%{transform:translateX(-2096px)}27.78%{transform:translateX(-2227px)}30.13%{transform:translateX(-2489px)}34.33%{transform:translateX(-2620px)}35.58%{transform:translateX(-2751px)}36.16%{transform:translateX(-2882px)}36.9%{transform:translateX(-3013px)}37.79%{transform:translateX(-3144px)}38.28%{transform:translateX(-3275px)}38.74%{transform:translateX(-3406px)}39.27%{transform:translateX(-3537px)}41.32%{transform:translateX(-3668px)}42.11%{transform:translateX(-3799px)}42.64%{transform:translateX(-3930px)}43.68%{transform:translateX(-4061px)}44.3%{transform:translateX(-4192px)}44.96%{transform:translateX(-4323px)}45.97%{transform:translateX(-4454px)}46.61%{transform:translateX(-4585px)}47.51%{transform:translateX(-4716px)}48.07%{transform:translateX(-4847px)}48.77%{transform:translateX(-4978px)}49.52%{transform:translateX(-5109px)}49.94%{transform:translateX(-5240px)}50.81%{transform:translateX(-5633px)}55.56%{transform:translateX(-5764px)}57.47%{transform:translateX(-5895px)}57.48%{transform:translateX(-6026px)}62.68%{transform:translateX(-6157px)}64.07%{transform:translateX(-6419px)}66.81%{transform:translateX(-6550px)}68.72%{transform:translateX(-6681px)}69.53%{transform:translateX(-6812px)}70.4%{transform:translateX(-6943px)}71.26%{transform:translateX(-7074px)}71.8%{transform:translateX(-7205px)}72.31%{transform:translateX(-7336px)}72.74%{transform:translateX(-7467px)}74.57%{transform:translateX(-7598px)}75.81%{transform:translateX(-7729px)}76.82%{transform:translateX(-7860px)}77.46%{transform:translateX(-7991px)}78.04%{transform:translateX(-8122px)}78.62%{transform:translateX(-8253px)}79.11%{transform:translateX(-8384px)}79.56%{transform:translateX(-8515px)}80.52%{transform:translateX(-8646px)}81.39%{transform:translateX(-8777px)}81.6%{transform:translateX(-8908px)}81.88%{transform:translateX(-9039px)}82.32%{transform:translateX(-9170px)}83.52%{transform:translateX(-9432px)}88.21%{transform:translateX(-9563px)}89.78%{transform:translateX(-9694px)}90.14%{transform:translateX(-9825px)}95.23%{transform:translateX(-9956px)}96.45%{transform:translateX(-10087px)}96.64%{transform:translateX(-10218px)}96.75%{transform:translateX(-10349px)}to{transform:translateX(-10480px)}}.a{fill:#282d35}.f{fill:#b9c0cb}.g{fill:#a8cc8c}.l{fill:#b9c0cb;text-decoration:underline}.m{fill:#e88388;font-weight:700}</style><g font-size="1.67" font-family="Monaco,Consolas,Menlo,'Bitstream Vera Sans Mono','Powerline Symbols',monospace"><defs><symbol id="1"><text y="1.67" class="f">Evas-MBP%</text></symbol><symbol id="2"><text y="1.67" class="f">Evas-MBP%</text><text x="10.02" y="1.67" class="g">codeowners-checker</text><text x="29.058" y="1.67" class="f">check</text></symbol><symbol id="3"><text y="1.67" class="f">File</text><text x="5.01" y="1.67" class="f">added:</text><text x="12.024" y="1.67" class="f">&quot;app/controllers/application_controller.rb&quot;.</text><text x="57.114" y="1.67" class="f">Add</text><text x="61.122" y="1.67" class="f">owner</text><text x="67.134" y="1.67" class="f">to</text><text x="70.14" y="1.67" class="f">CODEOWNERS?</text><text x="82.164" y="1.67" class="f">y</text></symbol><symbol id="4"><text y="1.67" class="f">File</text><text x="5.01" y="1.67" class="f">owner(s):</text></symbol><symbol id="5"><text y="1.67" class="f">File</text><text x="5.01" y="1.67" class="f">owner(s):</text><text x="16.032" y="1.67" class="f">@</text></symbol><symbol id="6"><text y="1.67" class="f">File</text><text x="5.01" y="1.67" class="f">owner(s):</text><text x="16.032" y="1.67" class="f">@c</text></symbol><symbol id="7"><text y="1.67" class="f">File</text><text x="5.01" y="1.67" class="f">owner(s):</text><text x="16.032" y="1.67" class="f">@co</text></symbol><symbol id="8"><text y="1.67" class="f">File</text><text x="5.01" y="1.67" class="f">owner(s):</text><text x="16.032" y="1.67" class="f">@com</text></symbol><symbol id="9"><text y="1.67" class="f">File</text><text x="5.01" y="1.67" class="f">owner(s):</text><text x="16.032" y="1.67" class="f">@comp</text></symbol><symbol id="10"><text y="1.67" class="f">File</text><text x="5.01" y="1.67" class="f">owner(s):</text><text x="16.032" y="1.67" class="f">@compa</text></symbol><symbol id="11"><text y="1.67" class="f">File</text><text x="5.01" y="1.67" class="f">owner(s):</text><text x="16.032" y="1.67" class="f">@compan</text></symbol><symbol id="12"><text y="1.67" class="f">File</text><text x="5.01" y="1.67" class="f">owner(s):</text><text x="16.032" y="1.67" class="f">@company</text></symbol><symbol id="13"><text y="1.67" class="f">File</text><text x="5.01" y="1.67" class="f">owner(s):</text><text x="16.032" y="1.67" class="f">@company/</text></symbol><symbol id="14"><text y="1.67" class="f">File</text><text x="5.01" y="1.67" class="f">owner(s):</text><text x="16.032" y="1.67" class="f">@company/b</text></symbol><symbol id="15"><text y="1.67" class="f">File</text><text x="5.01" y="1.67" class="f">owner(s):</text><text x="16.032" y="1.67" class="f">@company/backend-devs</text></symbol><symbol id="16"><text y="1.67" class="f">Possible</text><text x="9.018" y="1.67" class="f">groups</text><text x="16.032" y="1.67" class="f">to</text><text x="19.038" y="1.67" class="f">which</text><text x="25.05" y="1.67" class="f">the</text><text x="29.058" y="1.67" class="f">pattern</text><text x="37.074" y="1.67" class="f">belongs:</text></symbol><symbol id="17"><text y="1.67" class="f">1</text><text x="2.004" y="1.67" class="f">-</text><text x="4.008" y="1.67" class="f">#</text><text x="6.012" y="1.67" class="f">Backend</text></symbol><symbol id="18"><text y="1.67" class="f">Choose</text><text x="7.014" y="1.67" class="f">group:</text><text x="15.03" y="1.67" class="f">1</text></symbol><symbol id="19"><text y="1.67" class="f">File</text><text x="5.01" y="1.67" class="f">added:</text><text x="12.024" y="1.67" class="f">&quot;lib/invoices.rb&quot;.</text><text x="31.062" y="1.67" class="f">Add</text><text x="35.07" y="1.67" class="f">owner</text><text x="41.082" y="1.67" class="f">to</text><text x="44.088" y="1.67" class="f">CODEOWNERS?</text><text x="56.112" y="1.67" class="f">y</text></symbol><symbol id="20"><text y="1.67" class="f">File</text><text x="5.01" y="1.67" class="f">owner(s):</text><text x="16.032" y="1.67" class="f">@company/billing-team</text></symbol><symbol id="21"><text y="1.67" class="f">Add</text><text x="4.008" y="1.67" class="f">to</text><text x="7.014" y="1.67" class="f">the</text><text x="11.022" y="1.67" class="f">end</text><text x="15.03" y="1.67" class="f">of</text><text x="18.036" y="1.67" class="f">the</text><text x="22.044" y="1.67" class="f">codeowners</text><text x="33.066" y="1.67" class="f">file?</text><text x="39.078" y="1.67" class="f">y</text></symbol><symbol id="22"><text y="1.67" class="f">Commit</text><text x="7.014" y="1.67" class="f">changes?</text><text x="16.032" y="1.67" class="f">y</text></symbol><symbol id="a"><path fill="transparent" d="M0 0h131v24H0z"/></symbol><symbol id="b"><path fill="#6f7683" d="M0 0h1.102v2.171H0z"/></symbol></defs><path class="a" d="M0 0h131v49.933H0z"/><g style="animation-duration:23.886376s;animation-iteration-count:infinite;animation-name:j;animation-timing-function:steps(1,end)"><svg width="10611"><svg><use xlink:href="#a"/><use xlink:href="#b" x="-.004"/></svg><svg x="131"><use xlink:href="#a"/><use xlink:href="#b" x="-.004"/></svg><svg x="262"><use xlink:href="#a"/><use xlink:href="#b" x="9.996"/><use xlink:href="#1"/></svg><svg x="393"><use xlink:href="#a"/><use xlink:href="#b" x="10.996"/><text y="1.67" class="f">Evas-MBP%</text><text x="10.02" y="1.67" class="l">c</text></svg><svg x="524"><use xlink:href="#a"/><use xlink:href="#b" x="11.996"/><text y="1.67" class="f">Evas-MBP%</text><text x="10.02" y="1.67" class="l">co</text></svg><svg x="655"><use xlink:href="#a"/><use xlink:href="#b" x="12.996"/><text y="1.67" class="f">Evas-MBP%</text><text x="10.02" y="1.67" class="m">cod</text></svg><svg x="786"><use xlink:href="#a"/><use xlink:href="#b" x="13.996"/><text y="1.67" class="f">Evas-MBP%</text><text x="10.02" y="1.67" class="g">code</text></svg><svg x="917"><use xlink:href="#a"/><use xlink:href="#b" x="14.996"/><text y="1.67" class="f">Evas-MBP%</text><text x="10.02" y="1.67" class="m">codeo</text></svg><svg x="1048"><use xlink:href="#a"/><use xlink:href="#b" x="15.996"/><text y="1.67" class="f">Evas-MBP%</text><text x="10.02" y="1.67" class="m">codeow</text></svg><svg x="1179"><use xlink:href="#a"/><use xlink:href="#b" x="28.996"/><text y="1.67" class="f">Evas-MBP%</text><text x="10.02" y="1.67" class="g">codeowners-checker</text></svg><svg x="1310"><use xlink:href="#a"/><use xlink:href="#b" x="29.996"/><text y="1.67" class="f">Evas-MBP%</text><text x="10.02" y="1.67" class="g">codeowners-checker</text><text x="29.058" y="1.67" class="l">c</text></svg><svg x="1441"><use xlink:href="#a"/><use xlink:href="#b" x="30.996"/><text y="1.67" class="f">Evas-MBP%</text><text x="10.02" y="1.67" class="g">codeowners-checker</text><text x="29.058" y="1.67" class="f">ch</text></svg><svg x="1572"><use xlink:href="#a"/><use xlink:href="#b" x="31.996"/><text y="1.67" class="f">Evas-MBP%</text><text x="10.02" y="1.67" class="g">codeowners-checker</text><text x="29.058" y="1.67" class="f">che</text></svg><svg x="1703"><use xlink:href="#a"/><use xlink:href="#b" x="32.996"/><text y="1.67" class="f">Evas-MBP%</text><text x="10.02" y="1.67" class="g">codeowners-checker</text><text x="29.058" y="1.67" class="f">chec</text></svg><svg x="1834"><use xlink:href="#a"/><use xlink:href="#b" x="33.996"/><use xlink:href="#2"/></svg><svg x="1965"><use xlink:href="#a"/><use xlink:href="#b" x="-.004" y="2.146"/><use xlink:href="#2"/></svg><svg x="2096"><use xlink:href="#a"/><use xlink:href="#b" x="81.996" y="2.146"/><use xlink:href="#2"/><text y="3.841" class="f">File</text><text x="5.01" y="3.841" class="f">added:</text><text x="12.024" y="3.841" class="f">&quot;app/controllers/application_controller.rb&quot;.</text><text x="57.114" y="3.841" class="f">Add</text><text x="61.122" y="3.841" class="f">owner</text><text x="67.134" y="3.841" class="f">to</text><text x="70.14" y="3.841" class="f">CODEOWNERS?</text></svg><svg x="2227"><use xlink:href="#a"/><use xlink:href="#b" x="82.996" y="2.146"/><use xlink:href="#2"/><use xlink:href="#3" y="2.171"/></svg><svg x="2358"><use xlink:href="#a"/><use xlink:href="#b" x="-.004" y="4.317"/><use xlink:href="#2"/><use xlink:href="#3" y="2.171"/></svg><svg x="2489"><use xlink:href="#a"/><use xlink:href="#b" x="15.996" y="4.317"/><use xlink:href="#2"/><use xlink:href="#3" y="2.171"/><use xlink:href="#4" y="4.342"/></svg><svg x="2620"><use xlink:href="#a"/><use xlink:href="#b" x="16.996" y="4.317"/><use xlink:href="#2"/><use xlink:href="#3" y="2.171"/><use xlink:href="#5" y="4.342"/></svg><svg x="2751"><use xlink:href="#a"/><use xlink:href="#b" x="17.996" y="4.317"/><use xlink:href="#2"/><use xlink:href="#3" y="2.171"/><use xlink:href="#6" y="4.342"/></svg><svg x="2882"><use xlink:href="#a"/><use xlink:href="#b" x="18.996" y="4.317"/><use xlink:href="#2"/><use xlink:href="#3" y="2.171"/><use xlink:href="#7" y="4.342"/></svg><svg x="3013"><use xlink:href="#a"/><use xlink:href="#b" x="19.996" y="4.317"/><use xlink:href="#2"/><use xlink:href="#3" y="2.171"/><use xlink:href="#8" y="4.342"/></svg><svg x="3144"><use xlink:href="#a"/><use xlink:href="#b" x="20.996" y="4.317"/><use xlink:href="#2"/><use xlink:href="#3" y="2.171"/><use xlink:href="#9" y="4.342"/></svg><svg x="3275"><use xlink:href="#a"/><use xlink:href="#b" x="21.996" y="4.317"/><use xlink:href="#2"/><use xlink:href="#3" y="2.171"/><use xlink:href="#10" y="4.342"/></svg><svg x="3406"><use xlink:href="#a"/><use xlink:href="#b" x="22.996" y="4.317"/><use xlink:href="#2"/><use xlink:href="#3" y="2.171"/><use xlink:href="#11" y="4.342"/></svg><svg x="3537"><use xlink:href="#a"/><use xlink:href="#b" x="23.996" y="4.317"/><use xlink:href="#2"/><use xlink:href="#3" y="2.171"/><use xlink:href="#12" y="4.342"/></svg><svg x="3668"><use xlink:href="#a"/><use xlink:href="#b" x="24.996" y="4.317"/><use xlink:href="#2"/><use xlink:href="#3" y="2.171"/><use xlink:href="#13" y="4.342"/></svg><svg x="3799"><use xlink:href="#a"/><use xlink:href="#b" x="25.996" y="4.317"/><use xlink:href="#2"/><use xlink:href="#3" y="2.171"/><use xlink:href="#14" y="4.342"/></svg><svg x="3930"><use xlink:href="#a"/><use xlink:href="#b" x="26.996" y="4.317"/><use xlink:href="#2"/><use xlink:href="#3" y="2.171"/><text y="6.012" class="f">File</text><text x="5.01" y="6.012" class="f">owner(s):</text><text x="16.032" y="6.012" class="f">@company/ba</text></svg><svg x="4061"><use xlink:href="#a"/><use xlink:href="#b" x="27.996" y="4.317"/><use xlink:href="#2"/><use xlink:href="#3" y="2.171"/><text y="6.012" class="f">File</text><text x="5.01" y="6.012" class="f">owner(s):</text><text x="16.032" y="6.012" class="f">@company/bac</text></svg><svg x="4192"><use xlink:href="#a"/><use xlink:href="#b" x="28.996" y="4.317"/><use xlink:href="#2"/><use xlink:href="#3" y="2.171"/><text y="6.012" class="f">File</text><text x="5.01" y="6.012" class="f">owner(s):</text><text x="16.032" y="6.012" class="f">@company/back</text></svg><svg x="4323"><use xlink:href="#a"/><use xlink:href="#b" x="29.996" y="4.317"/><use xlink:href="#2"/><use xlink:href="#3" y="2.171"/><text y="6.012" class="f">File</text><text x="5.01" y="6.012" class="f">owner(s):</text><text x="16.032" y="6.012" class="f">@company/backe</text></svg><svg x="4454"><use xlink:href="#a"/><use xlink:href="#b" x="30.996" y="4.317"/><use xlink:href="#2"/><use xlink:href="#3" y="2.171"/><text y="6.012" class="f">File</text><text x="5.01" y="6.012" class="f">owner(s):</text><text x="16.032" y="6.012" class="f">@company/backen</text></svg><svg x="4585"><use xlink:href="#a"/><use xlink:href="#b" x="31.996" y="4.317"/><use xlink:href="#2"/><use xlink:href="#3" y="2.171"/><text y="6.012" class="f">File</text><text x="5.01" y="6.012" class="f">owner(s):</text><text x="16.032" y="6.012" class="f">@company/backend</text></svg><svg x="4716"><use xlink:href="#a"/><use xlink:href="#b" x="32.996" y="4.317"/><use xlink:href="#2"/><use xlink:href="#3" y="2.171"/><text y="6.012" class="f">File</text><text x="5.01" y="6.012" class="f">owner(s):</text><text x="16.032" y="6.012" class="f">@company/backend-</text></svg><svg x="4847"><use xlink:href="#a"/><use xlink:href="#b" x="33.996" y="4.317"/><use xlink:href="#2"/><use xlink:href="#3" y="2.171"/><text y="6.012" class="f">File</text><text x="5.01" y="6.012" class="f">owner(s):</text><text x="16.032" y="6.012" class="f">@company/backend-d</text></svg><svg x="4978"><use xlink:href="#a"/><use xlink:href="#b" x="34.996" y="4.317"/><use xlink:href="#2"/><use xlink:href="#3" y="2.171"/><text y="6.012" class="f">File</text><text x="5.01" y="6.012" class="f">owner(s):</text><text x="16.032" y="6.012" class="f">@company/backend-de</text></svg><svg x="5109"><use xlink:href="#a"/><use xlink:href="#b" x="35.996" y="4.317"/><use xlink:href="#2"/><use xlink:href="#3" y="2.171"/><text y="6.012" class="f">File</text><text x="5.01" y="6.012" class="f">owner(s):</text><text x="16.032" y="6.012" class="f">@company/backend-dev</text></svg><svg x="5240"><use xlink:href="#a"/><use xlink:href="#b" x="36.996" y="4.317"/><use xlink:href="#2"/><use xlink:href="#3" y="2.171"/><use xlink:href="#15" y="4.342"/></svg><svg x="5371"><use xlink:href="#a"/><use xlink:href="#b" x="-.004" y="6.488"/><use xlink:href="#2"/><use xlink:href="#3" y="2.171"/><use xlink:href="#15" y="4.342"/></svg><svg x="5502"><use xlink:href="#a"/><use xlink:href="#b" x="-.004" y="10.83"/><use xlink:href="#2"/><use xlink:href="#3" y="2.171"/><use xlink:href="#15" y="4.342"/><use xlink:href="#16" y="6.513"/><use xlink:href="#17" y="8.684"/></svg><svg x="5633"><use xlink:href="#a"/><use xlink:href="#b" x="14.996" y="10.83"/><use xlink:href="#2"/><use xlink:href="#3" y="2.171"/><use xlink:href="#15" y="4.342"/><use xlink:href="#16" y="6.513"/><use xlink:href="#17" y="8.684"/><text y="12.525" class="f">Choose</text><text x="7.014" y="12.525" class="f">group:</text></svg><svg x="5764"><use xlink:href="#a"/><use xlink:href="#b" x="15.996" y="10.83"/><use xlink:href="#2"/><use xlink:href="#3" y="2.171"/><use xlink:href="#15" y="4.342"/><use xlink:href="#16" y="6.513"/><use xlink:href="#17" y="8.684"/><use xlink:href="#18" y="10.855"/></svg><svg x="5895"><use xlink:href="#a"/><use xlink:href="#b" x="-.004" y="13.001"/><use xlink:href="#2"/><use xlink:href="#3" y="2.171"/><use xlink:href="#15" y="4.342"/><use xlink:href="#16" y="6.513"/><use xlink:href="#17" y="8.684"/><use xlink:href="#18" y="10.855"/></svg><svg x="6026"><use xlink:href="#a"/><use xlink:href="#b" x="55.996" y="13.001"/><use xlink:href="#2"/><use xlink:href="#3" y="2.171"/><use xlink:href="#15" y="4.342"/><use xlink:href="#16" y="6.513"/><use xlink:href="#17" y="8.684"/><use xlink:href="#18" y="10.855"/><text y="14.696" class="f">File</text><text x="5.01" y="14.696" class="f">added:</text><text x="12.024" y="14.696" class="f">&quot;lib/invoices.rb&quot;.</text><text x="31.062" y="14.696" class="f">Add</text><text x="35.07" y="14.696" class="f">owner</text><text x="41.082" y="14.696" class="f">to</text><text x="44.088" y="14.696" class="f">CODEOWNERS?</text></svg><svg x="6157"><use xlink:href="#a"/><use xlink:href="#b" x="56.996" y="13.001"/><use xlink:href="#2"/><use xlink:href="#3" y="2.171"/><use xlink:href="#15" y="4.342"/><use xlink:href="#16" y="6.513"/><use xlink:href="#17" y="8.684"/><use xlink:href="#18" y="10.855"/><use xlink:href="#19" y="13.026"/></svg><svg x="6288"><use xlink:href="#a"/><use xlink:href="#b" x="-.004" y="15.172"/><use xlink:href="#2"/><use xlink:href="#3" y="2.171"/><use xlink:href="#15" y="4.342"/><use xlink:href="#16" y="6.513"/><use xlink:href="#17" y="8.684"/><use xlink:href="#18" y="10.855"/><use xlink:href="#19" y="13.026"/></svg><svg x="6419"><use xlink:href="#a"/><use xlink:href="#b" x="15.996" y="15.172"/><use xlink:href="#2"/><use xlink:href="#3" y="2.171"/><use xlink:href="#15" y="4.342"/><use xlink:href="#16" y="6.513"/><use xlink:href="#17" y="8.684"/><use xlink:href="#18" y="10.855"/><use xlink:href="#19" y="13.026"/><use xlink:href="#4" y="15.197"/></svg><svg x="6550"><use xlink:href="#a"/><use xlink:href="#b" x="16.996" y="15.172"/><use xlink:href="#2"/><use xlink:href="#3" y="2.171"/><use xlink:href="#15" y="4.342"/><use xlink:href="#16" y="6.513"/><use xlink:href="#17" y="8.684"/><use xlink:href="#18" y="10.855"/><use xlink:href="#19" y="13.026"/><use xlink:href="#5" y="15.197"/></svg><svg x="6681"><use xlink:href="#a"/><use xlink:href="#b" x="17.996" y="15.172"/><use xlink:href="#2"/><use xlink:href="#3" y="2.171"/><use xlink:href="#15" y="4.342"/><use xlink:href="#16" y="6.513"/><use xlink:href="#17" y="8.684"/><use xlink:href="#18" y="10.855"/><use xlink:href="#19" y="13.026"/><use xlink:href="#6" y="15.197"/></svg><svg x="6812"><use xlink:href="#a"/><use xlink:href="#b" x="18.996" y="15.172"/><use xlink:href="#2"/><use xlink:href="#3" y="2.171"/><use xlink:href="#15" y="4.342"/><use xlink:href="#16" y="6.513"/><use xlink:href="#17" y="8.684"/><use xlink:href="#18" y="10.855"/><use xlink:href="#19" y="13.026"/><use xlink:href="#7" y="15.197"/></svg><svg x="6943"><use xlink:href="#a"/><use xlink:href="#b" x="19.996" y="15.172"/><use xlink:href="#2"/><use xlink:href="#3" y="2.171"/><use xlink:href="#15" y="4.342"/><use xlink:href="#16" y="6.513"/><use xlink:href="#17" y="8.684"/><use xlink:href="#18" y="10.855"/><use xlink:href="#19" y="13.026"/><use xlink:href="#8" y="15.197"/></svg><svg x="7074"><use xlink:href="#a"/><use xlink:href="#b" x="20.996" y="15.172"/><use xlink:href="#2"/><use xlink:href="#3" y="2.171"/><use xlink:href="#15" y="4.342"/><use xlink:href="#16" y="6.513"/><use xlink:href="#17" y="8.684"/><use xlink:href="#18" y="10.855"/><use xlink:href="#19" y="13.026"/><use xlink:href="#9" y="15.197"/></svg><svg x="7205"><use xlink:href="#a"/><use xlink:href="#b" x="21.996" y="15.172"/><use xlink:href="#2"/><use xlink:href="#3" y="2.171"/><use xlink:href="#15" y="4.342"/><use xlink:href="#16" y="6.513"/><use xlink:href="#17" y="8.684"/><use xlink:href="#18" y="10.855"/><use xlink:href="#19" y="13.026"/><use xlink:href="#10" y="15.197"/></svg><svg x="7336"><use xlink:href="#a"/><use xlink:href="#b" x="22.996" y="15.172"/><use xlink:href="#2"/><use xlink:href="#3" y="2.171"/><use xlink:href="#15" y="4.342"/><use xlink:href="#16" y="6.513"/><use xlink:href="#17" y="8.684"/><use xlink:href="#18" y="10.855"/><use xlink:href="#19" y="13.026"/><use xlink:href="#11" y="15.197"/></svg><svg x="7467"><use xlink:href="#a"/><use xlink:href="#b" x="23.996" y="15.172"/><use xlink:href="#2"/><use xlink:href="#3" y="2.171"/><use xlink:href="#15" y="4.342"/><use xlink:href="#16" y="6.513"/><use xlink:href="#17" y="8.684"/><use xlink:href="#18" y="10.855"/><use xlink:href="#19" y="13.026"/><use xlink:href="#12" y="15.197"/></svg><svg x="7598"><use xlink:href="#a"/><use xlink:href="#b" x="24.996" y="15.172"/><use xlink:href="#2"/><use xlink:href="#3" y="2.171"/><use xlink:href="#15" y="4.342"/><use xlink:href="#16" y="6.513"/><use xlink:href="#17" y="8.684"/><use xlink:href="#18" y="10.855"/><use xlink:href="#19" y="13.026"/><use xlink:href="#13" y="15.197"/></svg><svg x="7729"><use xlink:href="#a"/><use xlink:href="#b" x="25.996" y="15.172"/><use xlink:href="#2"/><use xlink:href="#3" y="2.171"/><use xlink:href="#15" y="4.342"/><use xlink:href="#16" y="6.513"/><use xlink:href="#17" y="8.684"/><use xlink:href="#18" y="10.855"/><use xlink:href="#19" y="13.026"/><use xlink:href="#14" y="15.197"/></svg><svg x="7860"><use xlink:href="#a"/><use xlink:href="#b" x="26.996" y="15.172"/><use xlink:href="#2"/><use xlink:href="#3" y="2.171"/><use xlink:href="#15" y="4.342"/><use xlink:href="#16" y="6.513"/><use xlink:href="#17" y="8.684"/><use xlink:href="#18" y="10.855"/><use xlink:href="#19" y="13.026"/><text y="16.867" class="f">File</text><text x="5.01" y="16.867" class="f">owner(s):</text><text x="16.032" y="16.867" class="f">@company/bi</text></svg><svg x="7991"><use xlink:href="#a"/><use xlink:href="#b" x="27.996" y="15.172"/><use xlink:href="#2"/><use xlink:href="#3" y="2.171"/><use xlink:href="#15" y="4.342"/><use xlink:href="#16" y="6.513"/><use xlink:href="#17" y="8.684"/><use xlink:href="#18" y="10.855"/><use xlink:href="#19" y="13.026"/><text y="16.867" class="f">File</text><text x="5.01" y="16.867" class="f">owner(s):</text><text x="16.032" y="16.867" class="f">@company/bil</text></svg><svg x="8122"><use xlink:href="#a"/><use xlink:href="#b" x="28.996" y="15.172"/><use xlink:href="#2"/><use xlink:href="#3" y="2.171"/><use xlink:href="#15" y="4.342"/><use xlink:href="#16" y="6.513"/><use xlink:href="#17" y="8.684"/><use xlink:href="#18" y="10.855"/><use xlink:href="#19" y="13.026"/><text y="16.867" class="f">File</text><text x="5.01" y="16.867" class="f">owner(s):</text><text x="16.032" y="16.867" class="f">@company/bill</text></svg><svg x="8253"><use xlink:href="#a"/><use xlink:href="#b" x="29.996" y="15.172"/><use xlink:href="#2"/><use xlink:href="#3" y="2.171"/><use xlink:href="#15" y="4.342"/><use xlink:href="#16" y="6.513"/><use xlink:href="#17" y="8.684"/><use xlink:href="#18" y="10.855"/><use xlink:href="#19" y="13.026"/><text y="16.867" class="f">File</text><text x="5.01" y="16.867" class="f">owner(s):</text><text x="16.032" y="16.867" class="f">@company/billi</text></svg><svg x="8384"><use xlink:href="#a"/><use xlink:href="#b" x="30.996" y="15.172"/><use xlink:href="#2"/><use xlink:href="#3" y="2.171"/><use xlink:href="#15" y="4.342"/><use xlink:href="#16" y="6.513"/><use xlink:href="#17" y="8.684"/><use xlink:href="#18" y="10.855"/><use xlink:href="#19" y="13.026"/><text y="16.867" class="f">File</text><text x="5.01" y="16.867" class="f">owner(s):</text><text x="16.032" y="16.867" class="f">@company/billin</text></svg><svg x="8515"><use xlink:href="#a"/><use xlink:href="#b" x="31.996" y="15.172"/><use xlink:href="#2"/><use xlink:href="#3" y="2.171"/><use xlink:href="#15" y="4.342"/><use xlink:href="#16" y="6.513"/><use xlink:href="#17" y="8.684"/><use xlink:href="#18" y="10.855"/><use xlink:href="#19" y="13.026"/><text y="16.867" class="f">File</text><text x="5.01" y="16.867" class="f">owner(s):</text><text x="16.032" y="16.867" class="f">@company/billing</text></svg><svg x="8646"><use xlink:href="#a"/><use xlink:href="#b" x="32.996" y="15.172"/><use xlink:href="#2"/><use xlink:href="#3" y="2.171"/><use xlink:href="#15" y="4.342"/><use xlink:href="#16" y="6.513"/><use xlink:href="#17" y="8.684"/><use xlink:href="#18" y="10.855"/><use xlink:href="#19" y="13.026"/><text y="16.867" class="f">File</text><text x="5.01" y="16.867" class="f">owner(s):</text><text x="16.032" y="16.867" class="f">@company/billing-</text></svg><svg x="8777"><use xlink:href="#a"/><use xlink:href="#b" x="33.996" y="15.172"/><use xlink:href="#2"/><use xlink:href="#3" y="2.171"/><use xlink:href="#15" y="4.342"/><use xlink:href="#16" y="6.513"/><use xlink:href="#17" y="8.684"/><use xlink:href="#18" y="10.855"/><use xlink:href="#19" y="13.026"/><text y="16.867" class="f">File</text><text x="5.01" y="16.867" class="f">owner(s):</text><text x="16.032" y="16.867" class="f">@company/billing-t</text></svg><svg x="8908"><use xlink:href="#a"/><use xlink:href="#b" x="34.996" y="15.172"/><use xlink:href="#2"/><use xlink:href="#3" y="2.171"/><use xlink:href="#15" y="4.342"/><use xlink:href="#16" y="6.513"/><use xlink:href="#17" y="8.684"/><use xlink:href="#18" y="10.855"/><use xlink:href="#19" y="13.026"/><text y="16.867" class="f">File</text><text x="5.01" y="16.867" class="f">owner(s):</text><text x="16.032" y="16.867" class="f">@company/billing-te</text></svg><svg x="9039"><use xlink:href="#a"/><use xlink:href="#b" x="35.996" y="15.172"/><use xlink:href="#2"/><use xlink:href="#3" y="2.171"/><use xlink:href="#15" y="4.342"/><use xlink:href="#16" y="6.513"/><use xlink:href="#17" y="8.684"/><use xlink:href="#18" y="10.855"/><use xlink:href="#19" y="13.026"/><text y="16.867" class="f">File</text><text x="5.01" y="16.867" class="f">owner(s):</text><text x="16.032" y="16.867" class="f">@company/billing-tea</text></svg><svg x="9170"><use xlink:href="#a"/><use xlink:href="#b" x="36.996" y="15.172"/><use xlink:href="#2"/><use xlink:href="#3" y="2.171"/><use xlink:href="#15" y="4.342"/><use xlink:href="#16" y="6.513"/><use xlink:href="#17" y="8.684"/><use xlink:href="#18" y="10.855"/><use xlink:href="#19" y="13.026"/><use xlink:href="#20" y="15.197"/></svg><svg x="9301"><use xlink:href="#a"/><use xlink:href="#b" x="-.004" y="17.343"/><use xlink:href="#2"/><use xlink:href="#3" y="2.171"/><use xlink:href="#15" y="4.342"/><use xlink:href="#16" y="6.513"/><use xlink:href="#17" y="8.684"/><use xlink:href="#18" y="10.855"/><use xlink:href="#19" y="13.026"/><use xlink:href="#20" y="15.197"/></svg><svg x="9432"><use xlink:href="#a"/><use xlink:href="#b" x="38.996" y="17.343"/><use xlink:href="#2"/><use xlink:href="#3" y="2.171"/><use xlink:href="#15" y="4.342"/><use xlink:href="#16" y="6.513"/><use xlink:href="#17" y="8.684"/><use xlink:href="#18" y="10.855"/><use xlink:href="#19" y="13.026"/><use xlink:href="#20" y="15.197"/><text y="19.038" class="f">Add</text><text x="4.008" y="19.038" class="f">to</text><text x="7.014" y="19.038" class="f">the</text><text x="11.022" y="19.038" class="f">end</text><text x="15.03" y="19.038" class="f">of</text><text x="18.036" y="19.038" class="f">the</text><text x="22.044" y="19.038" class="f">codeowners</text><text x="33.066" y="19.038" class="f">file?</text></svg><svg x="9563"><use xlink:href="#a"/><use xlink:href="#b" x="39.996" y="17.343"/><use xlink:href="#2"/><use xlink:href="#3" y="2.171"/><use xlink:href="#15" y="4.342"/><use xlink:href="#16" y="6.513"/><use xlink:href="#17" y="8.684"/><use xlink:href="#18" y="10.855"/><use xlink:href="#19" y="13.026"/><use xlink:href="#20" y="15.197"/><use xlink:href="#21" y="17.368"/></svg><svg x="9694"><use xlink:href="#a"/><use xlink:href="#b" x="-.004" y="19.514"/><use xlink:href="#2"/><use xlink:href="#3" y="2.171"/><use xlink:href="#15" y="4.342"/><use xlink:href="#16" y="6.513"/><use xlink:href="#17" y="8.684"/><use xlink:href="#18" y="10.855"/><use xlink:href="#19" y="13.026"/><use xlink:href="#20" y="15.197"/><use xlink:href="#21" y="17.368"/></svg><svg x="9825"><use xlink:href="#a"/><use xlink:href="#b" x="15.996" y="19.514"/><use xlink:href="#2"/><use xlink:href="#3" y="2.171"/><use xlink:href="#15" y="4.342"/><use xlink:href="#16" y="6.513"/><use xlink:href="#17" y="8.684"/><use xlink:href="#18" y="10.855"/><use xlink:href="#19" y="13.026"/><use xlink:href="#20" y="15.197"/><use xlink:href="#21" y="17.368"/><text y="21.209" class="f">Commit</text><text x="7.014" y="21.209" class="f">changes?</text></svg><svg x="9956"><use xlink:href="#a"/><use xlink:href="#b" x="16.996" y="19.514"/><use xlink:href="#2"/><use xlink:href="#3" y="2.171"/><use xlink:href="#15" y="4.342"/><use xlink:href="#16" y="6.513"/><use xlink:href="#17" y="8.684"/><use xlink:href="#18" y="10.855"/><use xlink:href="#19" y="13.026"/><use xlink:href="#20" y="15.197"/><use xlink:href="#21" y="17.368"/><use xlink:href="#22" y="19.539"/></svg><svg x="10087"><use xlink:href="#a"/><use xlink:href="#b" x="-.004" y="21.685"/><use xlink:href="#2"/><use xlink:href="#3" y="2.171"/><use xlink:href="#15" y="4.342"/><use xlink:href="#16" y="6.513"/><use xlink:href="#17" y="8.684"/><use xlink:href="#18" y="10.855"/><use xlink:href="#19" y="13.026"/><use xlink:href="#20" y="15.197"/><use xlink:href="#21" y="17.368"/><use xlink:href="#22" y="19.539"/></svg><svg x="10218"><use xlink:href="#a"/><use xlink:href="#b" x="-.004" y="21.685"/><use xlink:href="#2"/><use xlink:href="#3" y="2.171"/><use xlink:href="#15" y="4.342"/><use xlink:href="#16" y="6.513"/><use xlink:href="#17" y="8.684"/><use xlink:href="#18" y="10.855"/><use xlink:href="#19" y="13.026"/><use xlink:href="#20" y="15.197"/><use xlink:href="#21" y="17.368"/><use xlink:href="#22" y="19.539"/></svg><svg x="10349"><use xlink:href="#a"/><use xlink:href="#b" x="9.996" y="21.685"/><use xlink:href="#2"/><use xlink:href="#3" y="2.171"/><use xlink:href="#15" y="4.342"/><use xlink:href="#16" y="6.513"/><use xlink:href="#17" y="8.684"/><use xlink:href="#18" y="10.855"/><use xlink:href="#19" y="13.026"/><use xlink:href="#20" y="15.197"/><use xlink:href="#21" y="17.368"/><use xlink:href="#22" y="19.539"/><use xlink:href="#1" y="21.71"/></svg><svg x="10480"><use xlink:href="#a"/><use xlink:href="#b" x="-.004" y="23.856"/><use xlink:href="#2"/><use xlink:href="#3" y="2.171"/><use xlink:href="#15" y="4.342"/><use xlink:href="#16" y="6.513"/><use xlink:href="#17" y="8.684"/><use xlink:href="#18" y="10.855"/><use xlink:href="#19" y="13.026"/><use xlink:href="#20" y="15.197"/><use xlink:href="#21" y="17.368"/><use xlink:href="#22" y="19.539"/><use xlink:href="#1" y="21.71"/></svg></svg></g></g></svg></svg>