<svg xmlns="http://www.w3.org/2000/svg" xmlns:xlink="http://www.w3.org/1999/xlink" width="1630" height="494.2"><rect width="1630" height="494.2" rx="5" ry="5" class="a"/><svg y="0%" x="0%"><circle cx="20" cy="20" r="6" fill="#ff5f58"/><circle cx="40" cy="20" r="6" fill="#ffbd2e"/><circle cx="60" cy="20" r="6" fill="#18c132"/></svg><svg height="434.2" viewBox="0 0 159 43.42" width="1590" x="15" xmlns="http://www.w3.org/2000/svg" xmlns:xlink="http://www.w3.org/1999/xlink" y="50"><style>@keyframes j{0%{transform:translateX(0)}9.8%{transform:translateX(-159px)}10.1%{transform:translateX(-318px)}12.4%{transform:translateX(-477px)}13.7%{transform:translateX(-636px)}14.9%{transform:translateX(-795px)}16.4%{transform:translateX(-954px)}17.3%{transform:translateX(-1113px)}18.6%{transform:translateX(-1272px)}20.8%{transform:translateX(-1431px)}21.8%{transform:translateX(-1590px)}22.5%{transform:translateX(-1749px)}23.8%{transform:translateX(-1908px)}24.5%{transform:translateX(-2067px)}26.4%{transform:translateX(-2226px)}38.3%{transform:translateX(-2544px)}42.3%{transform:translateX(-2703px)}46.9%{transform:translateX(-2862px)}47%{transform:translateX(-3180px)}58.6%{transform:translateX(-3339px)}61.5%{transform:translateX(-3657px)}69%{transform:translateX(-3816px)}71.5%{transform:translateX(-3975px)}72.2%{transform:translateX(-4134px)}72.8%{transform:translateX(-4293px)}73.8%{transform:translateX(-4452px)}74.9%{transform:translateX(-4611px)}75.8%{transform:translateX(-4770px)}76.8%{transform:translateX(-4929px)}78.8%{transform:translateX(-5088px)}80.4%{transform:translateX(-5247px)}81.3%{transform:translateX(-5406px)}81.9%{transform:translateX(-5565px)}86.9%{transform:translateX(-5724px)}87.1%{transform:translateX(-5883px)}92.9%{transform:translateX(-6042px)}94.8%{transform:translateX(-6201px)}95.2%{transform:translateX(-6360px)}95.4%{transform:translateX(-6519px)}to{transform:translateX(-6678px)}}.a{fill:#282d35}.f{fill:#b9c0cb}.g{fill:#a8cc8c}.l{fill:#b9c0cb;text-decoration:underline}.m{fill:#e88388;font-weight:700}</style><g font-size="1.67" font-family="Monaco,Consolas,Menlo,'Bitstream Vera Sans Mono','Powerline Symbols',monospace"><defs><symbol id="1"><text y="1.67" class="f">Evas-MBP%</text></symbol><symbol id="2"><text y="1.67" class="f">Evas-MBP%</text><text x="10.02" y="1.67" class="g">codeowners-checker</text><text x="29.058" y="1.67" class="f">check</text></symbol><symbol id="3"><text y="1.67" class="f">Pattern</text><text x="8.016" y="1.67" class="f">&quot;packge.json&quot;</text><text x="22.044" y="1.67" class="f">doesn&apos;t</text><text x="30.06" y="1.67" class="f">match.</text></symbol><symbol id="4"><text y="1.67" class="f">Replace</text><text x="8.016" y="1.67" class="f">with:</text><text x="14.028" y="1.67" class="f">&quot;package.json&quot;?</text></symbol><symbol id="5"><text y="1.67" class="f">(y)</text><text x="4.008" y="1.67" class="f">yes</text></symbol><symbol id="6"><text y="1.67" class="f">(i)</text><text x="4.008" y="1.67" class="f">ignore</text></symbol><symbol id="7"><text y="1.67" class="f">(e)</text><text x="4.008" y="1.67" class="f">edit</text><text x="9.018" y="1.67" class="f">the</text><text x="13.026" y="1.67" class="f">pattern</text></symbol><symbol id="8"><text y="1.67" class="f">(d)</text><text x="4.008" y="1.67" class="f">delete</text><text x="11.022" y="1.67" class="f">the</text><text x="15.03" y="1.67" class="f">pattern</text></symbol><symbol id="9"><text x="1.002" y="1.67" class="f">[y,</text><text x="5.01" y="1.67" class="f">i,</text><text x="8.016" y="1.67" class="f">e,</text><text x="11.022" y="1.67" class="f">d]</text></symbol><symbol id="10"><text x="1.002" y="1.67" class="f">[y,</text><text x="5.01" y="1.67" class="f">i,</text><text x="8.016" y="1.67" class="f">e,</text><text x="11.022" y="1.67" class="f">d]</text><text x="14.028" y="1.67" class="f">y</text></symbol><symbol id="11"><text y="1.67" class="f">Pattern</text><text x="8.016" y="1.67" class="f">&quot;.rubo.yml&quot;</text><text x="20.04" y="1.67" class="f">doesn&apos;t</text><text x="28.056" y="1.67" class="f">match.</text></symbol><symbol id="12"><text y="1.67" class="f">Replace</text><text x="8.016" y="1.67" class="f">with:</text><text x="14.028" y="1.67" class="f">&quot;config.ru&quot;?</text></symbol><symbol id="13"><text x="1.002" y="1.67" class="f">[y,</text><text x="5.01" y="1.67" class="f">i,</text><text x="8.016" y="1.67" class="f">e,</text><text x="11.022" y="1.67" class="f">d]</text><text x="14.028" y="1.67" class="f">e</text></symbol><symbol id="14"><text y="1.67" class="f">Replace</text><text x="8.016" y="1.67" class="f">pattern</text><text x="16.032" y="1.67" class="f">&quot;.rubo.yml&quot;</text><text x="28.056" y="1.67" class="f">with:</text><text x="35.07" y="1.67" class="f">.rubocop.yml</text></symbol><symbol id="15"><text y="1.67" class="f">Commit</text><text x="7.014" y="1.67" class="f">changes?</text><text x="16.032" y="1.67" class="f">y</text></symbol><symbol id="a"><path fill="transparent" d="M0 0h159v21H0z"/></symbol><symbol id="b"><path fill="#6f7683" d="M0 0h1.102v2.171H0z"/></symbol></defs><path class="a" d="M0 0h159v43.42H0z"/><g style="animation-duration:15.286256s;animation-iteration-count:infinite;animation-name:j;animation-timing-function:steps(1,end)"><svg width="6837"><svg><use xlink:href="#a"/><use xlink:href="#b" x="-.004"/></svg><svg x="159"><use xlink:href="#a"/><use xlink:href="#b" x="-.004"/></svg><svg x="318"><use xlink:href="#a"/><use xlink:href="#b" x="9.996"/><use xlink:href="#1"/></svg><svg x="477"><use xlink:href="#a"/><use xlink:href="#b" x="10.996"/><text y="1.67" class="f">Evas-MBP%</text><text x="10.02" y="1.67" class="l">c</text></svg><svg x="636"><use xlink:href="#a"/><use xlink:href="#b" x="11.996"/><text y="1.67" class="f">Evas-MBP%</text><text x="10.02" y="1.67" class="l">co</text></svg><svg x="795"><use xlink:href="#a"/><use xlink:href="#b" x="12.996"/><text y="1.67" class="f">Evas-MBP%</text><text x="10.02" y="1.67" class="m">cod</text></svg><svg x="954"><use xlink:href="#a"/><use xlink:href="#b" x="13.996"/><text y="1.67" class="f">Evas-MBP%</text><text x="10.02" y="1.67" class="g">code</text></svg><svg x="1113"><use xlink:href="#a"/><use xlink:href="#b" x="14.996"/><text y="1.67" class="f">Evas-MBP%</text><text x="10.02" y="1.67" class="m">codeo</text></svg><svg x="1272"><use xlink:href="#a"/><use xlink:href="#b" x="28.996"/><text y="1.67" class="f">Evas-MBP%</text><text x="10.02" y="1.67" class="g">codeowners-checker</text></svg><svg x="1431"><use xlink:href="#a"/><use xlink:href="#b" x="29.996"/><text y="1.67" class="f">Evas-MBP%</text><text x="10.02" y="1.67" class="g">codeowners-checker</text><text x="29.058" y="1.67" class="l">c</text></svg><svg x="1590"><use xlink:href="#a"/><use xlink:href="#b" x="30.996"/><text y="1.67" class="f">Evas-MBP%</text><text x="10.02" y="1.67" class="g">codeowners-checker</text><text x="29.058" y="1.67" class="f">ch</text></svg><svg x="1749"><use xlink:href="#a"/><use xlink:href="#b" x="31.996"/><text y="1.67" class="f">Evas-MBP%</text><text x="10.02" y="1.67" class="g">codeowners-checker</text><text x="29.058" y="1.67" class="f">che</text></svg><svg x="1908"><use xlink:href="#a"/><use xlink:href="#b" x="32.996"/><text y="1.67" class="f">Evas-MBP%</text><text x="10.02" y="1.67" class="g">codeowners-checker</text><text x="29.058" y="1.67" class="f">chec</text></svg><svg x="2067"><use xlink:href="#a"/><use xlink:href="#b" x="33.996"/><use xlink:href="#2"/></svg><svg x="2226"><use xlink:href="#a"/><use xlink:href="#b" x="-.004" y="2.146"/><use xlink:href="#2"/></svg><svg x="2385"><use xlink:href="#a"/><use xlink:href="#b" x="-.004" y="4.317"/><use xlink:href="#2"/><use xlink:href="#3" y="2.171"/></svg><svg x="2544"><use xlink:href="#a"/><use xlink:href="#b" x="13.996" y="15.172"/><use xlink:href="#2"/><use xlink:href="#3" y="2.171"/><use xlink:href="#4" y="4.342"/><use xlink:href="#5" y="6.513"/><use xlink:href="#6" y="8.684"/><use xlink:href="#7" y="10.855"/><use xlink:href="#8" y="13.026"/><use xlink:href="#9" y="15.197"/></svg><svg x="2703"><use xlink:href="#a"/><use xlink:href="#b" x="14.996" y="15.172"/><use xlink:href="#2"/><use xlink:href="#3" y="2.171"/><use xlink:href="#4" y="4.342"/><use xlink:href="#5" y="6.513"/><use xlink:href="#6" y="8.684"/><use xlink:href="#7" y="10.855"/><use xlink:href="#8" y="13.026"/><use xlink:href="#10" y="15.197"/></svg><svg x="2862"><use xlink:href="#a"/><use xlink:href="#b" x="-.004" y="17.343"/><use xlink:href="#2"/><use xlink:href="#3" y="2.171"/><use xlink:href="#4" y="4.342"/><use xlink:href="#5" y="6.513"/><use xlink:href="#6" y="8.684"/><use xlink:href="#7" y="10.855"/><use xlink:href="#8" y="13.026"/><use xlink:href="#10" y="15.197"/></svg><svg x="3021"><use xlink:href="#a"/><use xlink:href="#b" x="-.004" y="19.514"/><use xlink:href="#2"/><use xlink:href="#3" y="2.171"/><use xlink:href="#4" y="4.342"/><use xlink:href="#5" y="6.513"/><use xlink:href="#6" y="8.684"/><use xlink:href="#7" y="10.855"/><use xlink:href="#8" y="13.026"/><use xlink:href="#10" y="15.197"/><use xlink:href="#11" y="17.368"/></svg><svg x="3180"><use xlink:href="#a"/><use xlink:href="#b" x="13.996" y="30.369"/><use xlink:href="#2"/><use xlink:href="#3" y="2.171"/><use xlink:href="#4" y="4.342"/><use xlink:href="#5" y="6.513"/><use xlink:href="#6" y="8.684"/><use xlink:href="#7" y="10.855"/><use xlink:href="#8" y="13.026"/><use xlink:href="#10" y="15.197"/><use xlink:href="#11" y="17.368"/><use xlink:href="#12" y="19.539"/><use xlink:href="#5" y="21.71"/><use xlink:href="#6" y="23.881"/><use xlink:href="#7" y="26.052"/><use xlink:href="#8" y="28.223"/><use xlink:href="#9" y="30.394"/></svg><svg x="3339"><use xlink:href="#a"/><use xlink:href="#b" x="14.996" y="30.369"/><use xlink:href="#2"/><use xlink:href="#3" y="2.171"/><use xlink:href="#4" y="4.342"/><use xlink:href="#5" y="6.513"/><use xlink:href="#6" y="8.684"/><use xlink:href="#7" y="10.855"/><use xlink:href="#8" y="13.026"/><use xlink:href="#10" y="15.197"/><use xlink:href="#11" y="17.368"/><use xlink:href="#12" y="19.539"/><use xlink:href="#5" y="21.71"/><use xlink:href="#6" y="23.881"/><use xlink:href="#7" y="26.052"/><use xlink:href="#8" y="28.223"/><use xlink:href="#13" y="30.394"/></svg><svg x="3498"><use xlink:href="#a"/><use xlink:href="#b" x="-.004" y="32.54"/><use xlink:href="#2"/><use xlink:href="#3" y="2.171"/><use xlink:href="#4" y="4.342"/><use xlink:href="#5" y="6.513"/><use xlink:href="#6" y="8.684"/><use xlink:href="#7" y="10.855"/><use xlink:href="#8" y="13.026"/><use xlink:href="#10" y="15.197"/><use xlink:href="#11" y="17.368"/><use xlink:href="#12" y="19.539"/><use xlink:href="#5" y="21.71"/><use xlink:href="#6" y="23.881"/><use xlink:href="#7" y="26.052"/><use xlink:href="#8" y="28.223"/><use xlink:href="#13" y="30.394"/></svg><svg x="3657"><use xlink:href="#a"/><use xlink:href="#b" x="34.996" y="32.54"/><use xlink:href="#2"/><use xlink:href="#3" y="2.171"/><use xlink:href="#4" y="4.342"/><use xlink:href="#5" y="6.513"/><use xlink:href="#6" y="8.684"/><use xlink:href="#7" y="10.855"/><use xlink:href="#8" y="13.026"/><use xlink:href="#10" y="15.197"/><use xlink:href="#11" y="17.368"/><use xlink:href="#12" y="19.539"/><use xlink:href="#5" y="21.71"/><use xlink:href="#6" y="23.881"/><use xlink:href="#7" y="26.052"/><use xlink:href="#8" y="28.223"/><use xlink:href="#13" y="30.394"/><text y="34.235" class="f">Replace</text><text x="8.016" y="34.235" class="f">pattern</text><text x="16.032" y="34.235" class="f">&quot;.rubo.yml&quot;</text><text x="28.056" y="34.235" class="f">with:</text></svg><svg x="3816"><use xlink:href="#a"/><use xlink:href="#b" x="35.996" y="32.54"/><use xlink:href="#2"/><use xlink:href="#3" y="2.171"/><use xlink:href="#4" y="4.342"/><use xlink:href="#5" y="6.513"/><use xlink:href="#6" y="8.684"/><use xlink:href="#7" y="10.855"/><use xlink:href="#8" y="13.026"/><use xlink:href="#10" y="15.197"/><use xlink:href="#11" y="17.368"/><use xlink:href="#12" y="19.539"/><use xlink:href="#5" y="21.71"/><use xlink:href="#6" y="23.881"/><use xlink:href="#7" y="26.052"/><use xlink:href="#8" y="28.223"/><use xlink:href="#13" y="30.394"/><text y="34.235" class="f">Replace</text><text x="8.016" y="34.235" class="f">pattern</text><text x="16.032" y="34.235" class="f">&quot;.rubo.yml&quot;</text><text x="28.056" y="34.235" class="f">with:</text><text x="35.07" y="34.235" class="f">.</text></svg><svg x="3975"><use xlink:href="#a"/><use xlink:href="#b" x="36.996" y="32.54"/><use xlink:href="#2"/><use xlink:href="#3" y="2.171"/><use xlink:href="#4" y="4.342"/><use xlink:href="#5" y="6.513"/><use xlink:href="#6" y="8.684"/><use xlink:href="#7" y="10.855"/><use xlink:href="#8" y="13.026"/><use xlink:href="#10" y="15.197"/><use xlink:href="#11" y="17.368"/><use xlink:href="#12" y="19.539"/><use xlink:href="#5" y="21.71"/><use xlink:href="#6" y="23.881"/><use xlink:href="#7" y="26.052"/><use xlink:href="#8" y="28.223"/><use xlink:href="#13" y="30.394"/><text y="34.235" class="f">Replace</text><text x="8.016" y="34.235" class="f">pattern</text><text x="16.032" y="34.235" class="f">&quot;.rubo.yml&quot;</text><text x="28.056" y="34.235" class="f">with:</text><text x="35.07" y="34.235" class="f">.r</text></svg><svg x="4134"><use xlink:href="#a"/><use xlink:href="#b" x="37.996" y="32.54"/><use xlink:href="#2"/><use xlink:href="#3" y="2.171"/><use xlink:href="#4" y="4.342"/><use xlink:href="#5" y="6.513"/><use xlink:href="#6" y="8.684"/><use xlink:href="#7" y="10.855"/><use xlink:href="#8" y="13.026"/><use xlink:href="#10" y="15.197"/><use xlink:href="#11" y="17.368"/><use xlink:href="#12" y="19.539"/><use xlink:href="#5" y="21.71"/><use xlink:href="#6" y="23.881"/><use xlink:href="#7" y="26.052"/><use xlink:href="#8" y="28.223"/><use xlink:href="#13" y="30.394"/><text y="34.235" class="f">Replace</text><text x="8.016" y="34.235" class="f">pattern</text><text x="16.032" y="34.235" class="f">&quot;.rubo.yml&quot;</text><text x="28.056" y="34.235" class="f">with:</text><text x="35.07" y="34.235" class="f">.ru</text></svg><svg x="4293"><use xlink:href="#a"/><use xlink:href="#b" x="38.996" y="32.54"/><use xlink:href="#2"/><use xlink:href="#3" y="2.171"/><use xlink:href="#4" y="4.342"/><use xlink:href="#5" y="6.513"/><use xlink:href="#6" y="8.684"/><use xlink:href="#7" y="10.855"/><use xlink:href="#8" y="13.026"/><use xlink:href="#10" y="15.197"/><use xlink:href="#11" y="17.368"/><use xlink:href="#12" y="19.539"/><use xlink:href="#5" y="21.71"/><use xlink:href="#6" y="23.881"/><use xlink:href="#7" y="26.052"/><use xlink:href="#8" y="28.223"/><use xlink:href="#13" y="30.394"/><text y="34.235" class="f">Replace</text><text x="8.016" y="34.235" class="f">pattern</text><text x="16.032" y="34.235" class="f">&quot;.rubo.yml&quot;</text><text x="28.056" y="34.235" class="f">with:</text><text x="35.07" y="34.235" class="f">.rub</text></svg><svg x="4452"><use xlink:href="#a"/><use xlink:href="#b" x="39.996" y="32.54"/><use xlink:href="#2"/><use xlink:href="#3" y="2.171"/><use xlink:href="#4" y="4.342"/><use xlink:href="#5" y="6.513"/><use xlink:href="#6" y="8.684"/><use xlink:href="#7" y="10.855"/><use xlink:href="#8" y="13.026"/><use xlink:href="#10" y="15.197"/><use xlink:href="#11" y="17.368"/><use xlink:href="#12" y="19.539"/><use xlink:href="#5" y="21.71"/><use xlink:href="#6" y="23.881"/><use xlink:href="#7" y="26.052"/><use xlink:href="#8" y="28.223"/><use xlink:href="#13" y="30.394"/><text y="34.235" class="f">Replace</text><text x="8.016" y="34.235" class="f">pattern</text><text x="16.032" y="34.235" class="f">&quot;.rubo.yml&quot;</text><text x="28.056" y="34.235" class="f">with:</text><text x="35.07" y="34.235" class="f">.rubo</text></svg><svg x="4611"><use xlink:href="#a"/><use xlink:href="#b" x="40.996" y="32.54"/><use xlink:href="#2"/><use xlink:href="#3" y="2.171"/><use xlink:href="#4" y="4.342"/><use xlink:href="#5" y="6.513"/><use xlink:href="#6" y="8.684"/><use xlink:href="#7" y="10.855"/><use xlink:href="#8" y="13.026"/><use xlink:href="#10" y="15.197"/><use xlink:href="#11" y="17.368"/><use xlink:href="#12" y="19.539"/><use xlink:href="#5" y="21.71"/><use xlink:href="#6" y="23.881"/><use xlink:href="#7" y="26.052"/><use xlink:href="#8" y="28.223"/><use xlink:href="#13" y="30.394"/><text y="34.235" class="f">Replace</text><text x="8.016" y="34.235" class="f">pattern</text><text x="16.032" y="34.235" class="f">&quot;.rubo.yml&quot;</text><text x="28.056" y="34.235" class="f">with:</text><text x="35.07" y="34.235" class="f">.ruboc</text></svg><svg x="4770"><use xlink:href="#a"/><use xlink:href="#b" x="41.996" y="32.54"/><use xlink:href="#2"/><use xlink:href="#3" y="2.171"/><use xlink:href="#4" y="4.342"/><use xlink:href="#5" y="6.513"/><use xlink:href="#6" y="8.684"/><use xlink:href="#7" y="10.855"/><use xlink:href="#8" y="13.026"/><use xlink:href="#10" y="15.197"/><use xlink:href="#11" y="17.368"/><use xlink:href="#12" y="19.539"/><use xlink:href="#5" y="21.71"/><use xlink:href="#6" y="23.881"/><use xlink:href="#7" y="26.052"/><use xlink:href="#8" y="28.223"/><use xlink:href="#13" y="30.394"/><text y="34.235" class="f">Replace</text><text x="8.016" y="34.235" class="f">pattern</text><text x="16.032" y="34.235" class="f">&quot;.rubo.yml&quot;</text><text x="28.056" y="34.235" class="f">with:</text><text x="35.07" y="34.235" class="f">.ruboco</text></svg><svg x="4929"><use xlink:href="#a"/><use xlink:href="#b" x="42.996" y="32.54"/><use xlink:href="#2"/><use xlink:href="#3" y="2.171"/><use xlink:href="#4" y="4.342"/><use xlink:href="#5" y="6.513"/><use xlink:href="#6" y="8.684"/><use xlink:href="#7" y="10.855"/><use xlink:href="#8" y="13.026"/><use xlink:href="#10" y="15.197"/><use xlink:href="#11" y="17.368"/><use xlink:href="#12" y="19.539"/><use xlink:href="#5" y="21.71"/><use xlink:href="#6" y="23.881"/><use xlink:href="#7" y="26.052"/><use xlink:href="#8" y="28.223"/><use xlink:href="#13" y="30.394"/><text y="34.235" class="f">Replace</text><text x="8.016" y="34.235" class="f">pattern</text><text x="16.032" y="34.235" class="f">&quot;.rubo.yml&quot;</text><text x="28.056" y="34.235" class="f">with:</text><text x="35.07" y="34.235" class="f">.rubocop</text></svg><svg x="5088"><use xlink:href="#a"/><use xlink:href="#b" x="43.996" y="32.54"/><use xlink:href="#2"/><use xlink:href="#3" y="2.171"/><use xlink:href="#4" y="4.342"/><use xlink:href="#5" y="6.513"/><use xlink:href="#6" y="8.684"/><use xlink:href="#7" y="10.855"/><use xlink:href="#8" y="13.026"/><use xlink:href="#10" y="15.197"/><use xlink:href="#11" y="17.368"/><use xlink:href="#12" y="19.539"/><use xlink:href="#5" y="21.71"/><use xlink:href="#6" y="23.881"/><use xlink:href="#7" y="26.052"/><use xlink:href="#8" y="28.223"/><use xlink:href="#13" y="30.394"/><text y="34.235" class="f">Replace</text><text x="8.016" y="34.235" class="f">pattern</text><text x="16.032" y="34.235" class="f">&quot;.rubo.yml&quot;</text><text x="28.056" y="34.235" class="f">with:</text><text x="35.07" y="34.235" class="f">.rubocop.</text></svg><svg x="5247"><use xlink:href="#a"/><use xlink:href="#b" x="44.996" y="32.54"/><use xlink:href="#2"/><use xlink:href="#3" y="2.171"/><use xlink:href="#4" y="4.342"/><use xlink:href="#5" y="6.513"/><use xlink:href="#6" y="8.684"/><use xlink:href="#7" y="10.855"/><use xlink:href="#8" y="13.026"/><use xlink:href="#10" y="15.197"/><use xlink:href="#11" y="17.368"/><use xlink:href="#12" y="19.539"/><use xlink:href="#5" y="21.71"/><use xlink:href="#6" y="23.881"/><use xlink:href="#7" y="26.052"/><use xlink:href="#8" y="28.223"/><use xlink:href="#13" y="30.394"/><text y="34.235" class="f">Replace</text><text x="8.016" y="34.235" class="f">pattern</text><text x="16.032" y="34.235" class="f">&quot;.rubo.yml&quot;</text><text x="28.056" y="34.235" class="f">with:</text><text x="35.07" y="34.235" class="f">.rubocop.y</text></svg><svg x="5406"><use xlink:href="#a"/><use xlink:href="#b" x="45.996" y="32.54"/><use xlink:href="#2"/><use xlink:href="#3" y="2.171"/><use xlink:href="#4" y="4.342"/><use xlink:href="#5" y="6.513"/><use xlink:href="#6" y="8.684"/><use xlink:href="#7" y="10.855"/><use xlink:href="#8" y="13.026"/><use xlink:href="#10" y="15.197"/><use xlink:href="#11" y="17.368"/><use xlink:href="#12" y="19.539"/><use xlink:href="#5" y="21.71"/><use xlink:href="#6" y="23.881"/><use xlink:href="#7" y="26.052"/><use xlink:href="#8" y="28.223"/><use xlink:href="#13" y="30.394"/><text y="34.235" class="f">Replace</text><text x="8.016" y="34.235" class="f">pattern</text><text x="16.032" y="34.235" class="f">&quot;.rubo.yml&quot;</text><text x="28.056" y="34.235" class="f">with:</text><text x="35.07" y="34.235" class="f">.rubocop.ym</text></svg><svg x="5565"><use xlink:href="#a"/><use xlink:href="#b" x="46.996" y="32.54"/><use xlink:href="#2"/><use xlink:href="#3" y="2.171"/><use xlink:href="#4" y="4.342"/><use xlink:href="#5" y="6.513"/><use xlink:href="#6" y="8.684"/><use xlink:href="#7" y="10.855"/><use xlink:href="#8" y="13.026"/><use xlink:href="#10" y="15.197"/><use xlink:href="#11" y="17.368"/><use xlink:href="#12" y="19.539"/><use xlink:href="#5" y="21.71"/><use xlink:href="#6" y="23.881"/><use xlink:href="#7" y="26.052"/><use xlink:href="#8" y="28.223"/><use xlink:href="#13" y="30.394"/><use xlink:href="#14" y="32.565"/></svg><svg x="5724"><use xlink:href="#a"/><use xlink:href="#b" x="-.004" y="34.711"/><use xlink:href="#2"/><use xlink:href="#3" y="2.171"/><use xlink:href="#4" y="4.342"/><use xlink:href="#5" y="6.513"/><use xlink:href="#6" y="8.684"/><use xlink:href="#7" y="10.855"/><use xlink:href="#8" y="13.026"/><use xlink:href="#10" y="15.197"/><use xlink:href="#11" y="17.368"/><use xlink:href="#12" y="19.539"/><use xlink:href="#5" y="21.71"/><use xlink:href="#6" y="23.881"/><use xlink:href="#7" y="26.052"/><use xlink:href="#8" y="28.223"/><use xlink:href="#13" y="30.394"/><use xlink:href="#14" y="32.565"/></svg><svg x="5883"><use xlink:href="#a"/><use xlink:href="#b" x="15.996" y="34.711"/><use xlink:href="#2"/><use xlink:href="#3" y="2.171"/><use xlink:href="#4" y="4.342"/><use xlink:href="#5" y="6.513"/><use xlink:href="#6" y="8.684"/><use xlink:href="#7" y="10.855"/><use xlink:href="#8" y="13.026"/><use xlink:href="#10" y="15.197"/><use xlink:href="#11" y="17.368"/><use xlink:href="#12" y="19.539"/><use xlink:href="#5" y="21.71"/><use xlink:href="#6" y="23.881"/><use xlink:href="#7" y="26.052"/><use xlink:href="#8" y="28.223"/><use xlink:href="#13" y="30.394"/><use xlink:href="#14" y="32.565"/><text y="36.406" class="f">Commit</text><text x="7.014" y="36.406" class="f">changes?</text></svg><svg x="6042"><use xlink:href="#a"/><use xlink:href="#b" x="16.996" y="34.711"/><use xlink:href="#2"/><use xlink:href="#3" y="2.171"/><use xlink:href="#4" y="4.342"/><use xlink:href="#5" y="6.513"/><use xlink:href="#6" y="8.684"/><use xlink:href="#7" y="10.855"/><use xlink:href="#8" y="13.026"/><use xlink:href="#10" y="15.197"/><use xlink:href="#11" y="17.368"/><use xlink:href="#12" y="19.539"/><use xlink:href="#5" y="21.71"/><use xlink:href="#6" y="23.881"/><use xlink:href="#7" y="26.052"/><use xlink:href="#8" y="28.223"/><use xlink:href="#13" y="30.394"/><use xlink:href="#14" y="32.565"/><use xlink:href="#15" y="34.736"/></svg><svg x="6201"><use xlink:href="#a"/><use xlink:href="#b" x="-.004" y="36.882"/><use xlink:href="#2"/><use xlink:href="#3" y="2.171"/><use xlink:href="#4" y="4.342"/><use xlink:href="#5" y="6.513"/><use xlink:href="#6" y="8.684"/><use xlink:href="#7" y="10.855"/><use xlink:href="#8" y="13.026"/><use xlink:href="#10" y="15.197"/><use xlink:href="#11" y="17.368"/><use xlink:href="#12" y="19.539"/><use xlink:href="#5" y="21.71"/><use xlink:href="#6" y="23.881"/><use xlink:href="#7" y="26.052"/><use xlink:href="#8" y="28.223"/><use xlink:href="#13" y="30.394"/><use xlink:href="#14" y="32.565"/><use xlink:href="#15" y="34.736"/></svg><svg x="6360"><use xlink:href="#a"/><use xlink:href="#b" x="-.004" y="36.882"/><use xlink:href="#2"/><use xlink:href="#3" y="2.171"/><use xlink:href="#4" y="4.342"/><use xlink:href="#5" y="6.513"/><use xlink:href="#6" y="8.684"/><use xlink:href="#7" y="10.855"/><use xlink:href="#8" y="13.026"/><use xlink:href="#10" y="15.197"/><use xlink:href="#11" y="17.368"/><use xlink:href="#12" y="19.539"/><use xlink:href="#5" y="21.71"/><use xlink:href="#6" y="23.881"/><use xlink:href="#7" y="26.052"/><use xlink:href="#8" y="28.223"/><use xlink:href="#13" y="30.394"/><use xlink:href="#14" y="32.565"/><use xlink:href="#15" y="34.736"/></svg><svg x="6519"><use xlink:href="#a"/><use xlink:href="#b" x="9.996" y="36.882"/><use xlink:href="#2"/><use xlink:href="#3" y="2.171"/><use xlink:href="#4" y="4.342"/><use xlink:href="#5" y="6.513"/><use xlink:href="#6" y="8.684"/><use xlink:href="#7" y="10.855"/><use xlink:href="#8" y="13.026"/><use xlink:href="#10" y="15.197"/><use xlink:href="#11" y="17.368"/><use xlink:href="#12" y="19.539"/><use xlink:href="#5" y="21.71"/><use xlink:href="#6" y="23.881"/><use xlink:href="#7" y="26.052"/><use xlink:href="#8" y="28.223"/><use xlink:href="#13" y="30.394"/><use xlink:href="#14" y="32.565"/><use xlink:href="#15" y="34.736"/><use xlink:href="#1" y="36.907"/></svg><svg x="6678"><use xlink:href="#a"/><use xlink:href="#b" x="-.004" y="39.053"/><use xlink:href="#2"/><use xlink:href="#3" y="2.171"/><use xlink:href="#4" y="4.342"/><use xlink:href="#5" y="6.513"/><use xlink:href="#6" y="8.684"/><use xlink:href="#7" y="10.855"/><use xlink:href="#8" y="13.026"/><use xlink:href="#10" y="15.197"/><use xlink:href="#11" y="17.368"/><use xlink:href="#12" y="19.539"/><use xlink:href="#5" y="21.71"/><use xlink:href="#6" y="23.881"/><use xlink:href="#7" y="26.052"/><use xlink:href="#8" y="28.223"/><use xlink:href="#13" y="30.394"/><use xlink:href="#14" y="32.565"/><use xlink:href="#15" y="34.736"/><use xlink:href="#1" y="36.907"/></svg></svg></g></g></svg></svg>