<svg xmlns="http://www.w3.org/2000/svg" xmlns:xlink="http://www.w3.org/1999/xlink" width="1350" height="559.33"><rect width="1350" height="559.33" rx="5" ry="5" class="a"/><svg y="0%" x="0%"><circle cx="20" cy="20" r="6" fill="#ff5f58"/><circle cx="40" cy="20" r="6" fill="#ffbd2e"/><circle cx="60" cy="20" r="6" fill="#18c132"/></svg><svg height="499.33" viewBox="0 0 131 49.933" width="1310" x="15" xmlns="http://www.w3.org/2000/svg" xmlns:xlink="http://www.w3.org/1999/xlink" y="50"><style>@keyframes j{0%{transform:translateX(0)}8.43%{transform:translateX(-131px)}8.58%{transform:translateX(-262px)}10.85%{transform:translateX(-393px)}11.44%{transform:translateX(-524px)}12.04%{transform:translateX(-655px)}12.8%{transform:translateX(-786px)}13.62%{transform:translateX(-917px)}15%{transform:translateX(-1048px)}16.64%{transform:translateX(-1179px)}17.48%{transform:translateX(-1310px)}18.07%{transform:translateX(-1441px)}19.02%{transform:translateX(-1572px)}19.68%{transform:translateX(-1703px)}21.08%{transform:translateX(-1834px)}31.09%{transform:translateX(-2096px)}43.03%{transform:translateX(-2227px)}44.85%{transform:translateX(-2358px)}44.9%{transform:translateX(-2620px)}50.66%{transform:translateX(-2751px)}53.08%{transform:translateX(-2882px)}53.19%{transform:translateX(-3144px)}63.72%{transform:translateX(-3275px)}65.64%{transform:translateX(-3537px)}71.26%{transform:translateX(-3668px)}72.87%{transform:translateX(-3799px)}73.88%{transform:translateX(-3930px)}74.34%{transform:translateX(-4061px)}75.12%{transform:translateX(-4192px)}75.81%{transform:translateX(-4323px)}76.63%{transform:translateX(-4454px)}77.8%{transform:translateX(-4585px)}80.16%{transform:translateX(-4716px)}81.24%{transform:translateX(-4847px)}82.02%{transform:translateX(-4978px)}82.24%{transform:translateX(-5109px)}85.12%{transform:translateX(-5371px)}89.93%{transform:translateX(-5502px)}92.02%{transform:translateX(-5633px)}92.37%{transform:translateX(-5764px)}92.49%{transform:translateX(-5895px)}to{transform:translateX(-6026px)}}.a{fill:#282d35}.f{fill:#b9c0cb}.g{fill:#a8cc8c}.l{fill:#b9c0cb;text-decoration:underline}.m{fill:#e88388;font-weight:700}</style><g font-size="1.67" font-family="Monaco,Consolas,Menlo,'Bitstream Vera Sans Mono','Powerline Symbols',monospace"><defs><symbol id="1"><text y="1.67" class="f">Evas-MBP%</text></symbol><symbol id="2"><text y="1.67" class="f">Evas-MBP%</text><text x="10.02" y="1.67" class="g">codeowners-checker</text><text x="29.058" y="1.67" class="f">check</text></symbol><symbol id="3"><text y="1.67" class="f">Pattern</text><text x="8.016" y="1.67" class="f">&quot;app/models/billng.rb&quot;</text><text x="31.062" y="1.67" class="f">doesn&apos;t</text><text x="39.078" y="1.67" class="f">match.</text></symbol><symbol id="4"><text y="1.67" class="f">Replace</text><text x="8.016" y="1.67" class="f">with:</text><text x="14.028" y="1.67" class="f">&quot;app/models/billing.rb&quot;?</text></symbol><symbol id="5"><text y="1.67" class="f">(y)</text><text x="4.008" y="1.67" class="f">yes</text></symbol><symbol id="6"><text y="1.67" class="f">(i)</text><text x="4.008" y="1.67" class="f">ignore</text></symbol><symbol id="7"><text y="1.67" class="f">(e)</text><text x="4.008" y="1.67" class="f">edit</text><text x="9.018" y="1.67" class="f">the</text><text x="13.026" y="1.67" class="f">pattern</text></symbol><symbol id="8"><text y="1.67" class="f">(d)</text><text x="4.008" y="1.67" class="f">delete</text><text x="11.022" y="1.67" class="f">the</text><text x="15.03" y="1.67" class="f">pattern</text></symbol><symbol id="9"><text x="1.002" y="1.67" class="f">[y,</text><text x="5.01" y="1.67" class="f">i,</text><text x="8.016" y="1.67" class="f">e,</text><text x="11.022" y="1.67" class="f">d]</text></symbol><symbol id="10"><text x="1.002" y="1.67" class="f">[y,</text><text x="5.01" y="1.67" class="f">i,</text><text x="8.016" y="1.67" class="f">e,</text><text x="11.022" y="1.67" class="f">d]</text><text x="14.028" y="1.67" class="f">y</text></symbol><symbol id="11"><text y="1.67" class="f">Pattern</text><text x="8.016" y="1.67" class="f">&quot;lib/security/*&quot;</text><text x="25.05" y="1.67" class="f">doesn&apos;t</text><text x="33.066" y="1.67" class="f">match.</text></symbol><symbol id="12"><text x="1.002" y="1.67" class="f">[i,</text><text x="5.01" y="1.67" class="f">e,</text><text x="8.016" y="1.67" class="f">d]</text><text x="11.022" y="1.67" class="f">d</text></symbol><symbol id="13"><text y="1.67" class="f">Pattern</text><text x="8.016" y="1.67" class="f">&quot;.rubo.yml&quot;</text><text x="20.04" y="1.67" class="f">doesn&apos;t</text><text x="28.056" y="1.67" class="f">match.</text></symbol><symbol id="14"><text y="1.67" class="f">Replace</text><text x="8.016" y="1.67" class="f">with:</text><text x="14.028" y="1.67" class="f">&quot;db&quot;?</text></symbol><symbol id="15"><text x="1.002" y="1.67" class="f">[y,</text><text x="5.01" y="1.67" class="f">i,</text><text x="8.016" y="1.67" class="f">e,</text><text x="11.022" y="1.67" class="f">d]</text><text x="14.028" y="1.67" class="f">e</text></symbol><symbol id="16"><text y="1.67" class="f">Replace</text><text x="8.016" y="1.67" class="f">pattern</text><text x="16.032" y="1.67" class="f">&quot;.rubo.yml&quot;</text><text x="28.056" y="1.67" class="f">with:</text><text x="35.07" y="1.67" class="f">.rubocop.yml</text></symbol><symbol id="17"><text y="1.67" class="f">Commit</text><text x="7.014" y="1.67" class="f">changes?</text><text x="16.032" y="1.67" class="f">y</text></symbol><symbol id="a"><path fill="transparent" d="M0 0h131v24H0z"/></symbol><symbol id="b"><path fill="#6f7683" d="M0 0h1.102v2.171H0z"/></symbol></defs><path class="a" d="M0 0h131v49.933H0z"/><g style="animation-duration:19.572061s;animation-iteration-count:infinite;animation-name:j;animation-timing-function:steps(1,end)"><svg width="6157"><svg><use xlink:href="#a"/><use xlink:href="#b" x="-.004"/></svg><svg x="131"><use xlink:href="#a"/><use xlink:href="#b" x="-.004"/></svg><svg x="262"><use xlink:href="#a"/><use xlink:href="#b" x="9.996"/><use xlink:href="#1"/></svg><svg x="393"><use xlink:href="#a"/><use xlink:href="#b" x="10.996"/><text y="1.67" class="f">Evas-MBP%</text><text x="10.02" y="1.67" class="l">c</text></svg><svg x="524"><use xlink:href="#a"/><use xlink:href="#b" x="11.996"/><text y="1.67" class="f">Evas-MBP%</text><text x="10.02" y="1.67" class="l">co</text></svg><svg x="655"><use xlink:href="#a"/><use xlink:href="#b" x="12.996"/><text y="1.67" class="f">Evas-MBP%</text><text x="10.02" y="1.67" class="m">cod</text></svg><svg x="786"><use xlink:href="#a"/><use xlink:href="#b" x="13.996"/><text y="1.67" class="f">Evas-MBP%</text><text x="10.02" y="1.67" class="g">code</text></svg><svg x="917"><use xlink:href="#a"/><use xlink:href="#b" x="14.996"/><text y="1.67" class="f">Evas-MBP%</text><text x="10.02" y="1.67" class="m">codeo</text></svg><svg x="1048"><use xlink:href="#a"/><use xlink:href="#b" x="28.996"/><text y="1.67" class="f">Evas-MBP%</text><text x="10.02" y="1.67" class="g">codeowners-checker</text></svg><svg x="1179"><use xlink:href="#a"/><use xlink:href="#b" x="29.996"/><text y="1.67" class="f">Evas-MBP%</text><text x="10.02" y="1.67" class="g">codeowners-checker</text><text x="29.058" y="1.67" class="l">c</text></svg><svg x="1310"><use xlink:href="#a"/><use xlink:href="#b" x="30.996"/><text y="1.67" class="f">Evas-MBP%</text><text x="10.02" y="1.67" class="g">codeowners-checker</text><text x="29.058" y="1.67" class="f">ch</text></svg><svg x="1441"><use xlink:href="#a"/><use xlink:href="#b" x="31.996"/><text y="1.67" class="f">Evas-MBP%</text><text x="10.02" y="1.67" class="g">codeowners-checker</text><text x="29.058" y="1.67" class="f">che</text></svg><svg x="1572"><use xlink:href="#a"/><use xlink:href="#b" x="32.996"/><text y="1.67" class="f">Evas-MBP%</text><text x="10.02" y="1.67" class="g">codeowners-checker</text><text x="29.058" y="1.67" class="f">chec</text></svg><svg x="1703"><use xlink:href="#a"/><use xlink:href="#b" x="33.996"/><use xlink:href="#2"/></svg><svg x="1834"><use xlink:href="#a"/><use xlink:href="#b" x="-.004" y="2.146"/><use xlink:href="#2"/></svg><svg x="1965"><use xlink:href="#a"/><use xlink:href="#b" x="-.004" y="4.317"/><use xlink:href="#2"/><use xlink:href="#3" y="2.171"/></svg><svg x="2096"><use xlink:href="#a"/><use xlink:href="#b" x="13.996" y="15.172"/><use xlink:href="#2"/><use xlink:href="#3" y="2.171"/><use xlink:href="#4" y="4.342"/><use xlink:href="#5" y="6.513"/><use xlink:href="#6" y="8.684"/><use xlink:href="#7" y="10.855"/><use xlink:href="#8" y="13.026"/><use xlink:href="#9" y="15.197"/></svg><svg x="2227"><use xlink:href="#a"/><use xlink:href="#b" x="14.996" y="15.172"/><use xlink:href="#2"/><use xlink:href="#3" y="2.171"/><use xlink:href="#4" y="4.342"/><use xlink:href="#5" y="6.513"/><use xlink:href="#6" y="8.684"/><use xlink:href="#7" y="10.855"/><use xlink:href="#8" y="13.026"/><use xlink:href="#10" y="15.197"/></svg><svg x="2358"><use xlink:href="#a"/><use xlink:href="#b" x="-.004" y="17.343"/><use xlink:href="#2"/><use xlink:href="#3" y="2.171"/><use xlink:href="#4" y="4.342"/><use xlink:href="#5" y="6.513"/><use xlink:href="#6" y="8.684"/><use xlink:href="#7" y="10.855"/><use xlink:href="#8" y="13.026"/><use xlink:href="#10" y="15.197"/></svg><svg x="2489"><use xlink:href="#a"/><use xlink:href="#b" x="-.004" y="19.514"/><use xlink:href="#2"/><use xlink:href="#3" y="2.171"/><use xlink:href="#4" y="4.342"/><use xlink:href="#5" y="6.513"/><use xlink:href="#6" y="8.684"/><use xlink:href="#7" y="10.855"/><use xlink:href="#8" y="13.026"/><use xlink:href="#10" y="15.197"/><use xlink:href="#11" y="17.368"/></svg><svg x="2620"><use xlink:href="#a"/><use xlink:href="#b" x="10.996" y="26.027"/><use xlink:href="#2"/><use xlink:href="#3" y="2.171"/><use xlink:href="#4" y="4.342"/><use xlink:href="#5" y="6.513"/><use xlink:href="#6" y="8.684"/><use xlink:href="#7" y="10.855"/><use xlink:href="#8" y="13.026"/><use xlink:href="#10" y="15.197"/><use xlink:href="#11" y="17.368"/><use xlink:href="#7" y="19.539"/><use xlink:href="#8" y="21.71"/><use xlink:href="#6" y="23.881"/><text x="1.002" y="27.722" class="f">[i,</text><text x="5.01" y="27.722" class="f">e,</text><text x="8.016" y="27.722" class="f">d]</text></svg><svg x="2751"><use xlink:href="#a"/><use xlink:href="#b" x="11.996" y="26.027"/><use xlink:href="#2"/><use xlink:href="#3" y="2.171"/><use xlink:href="#4" y="4.342"/><use xlink:href="#5" y="6.513"/><use xlink:href="#6" y="8.684"/><use xlink:href="#7" y="10.855"/><use xlink:href="#8" y="13.026"/><use xlink:href="#10" y="15.197"/><use xlink:href="#11" y="17.368"/><use xlink:href="#7" y="19.539"/><use xlink:href="#8" y="21.71"/><use xlink:href="#6" y="23.881"/><use xlink:href="#12" y="26.052"/></svg><svg x="2882"><use xlink:href="#a"/><use xlink:href="#b" x="-.004" y="28.198"/><use xlink:href="#2"/><use xlink:href="#3" y="2.171"/><use xlink:href="#4" y="4.342"/><use xlink:href="#5" y="6.513"/><use xlink:href="#6" y="8.684"/><use xlink:href="#7" y="10.855"/><use xlink:href="#8" y="13.026"/><use xlink:href="#10" y="15.197"/><use xlink:href="#11" y="17.368"/><use xlink:href="#7" y="19.539"/><use xlink:href="#8" y="21.71"/><use xlink:href="#6" y="23.881"/><use xlink:href="#12" y="26.052"/></svg><svg x="3013"><use xlink:href="#a"/><use xlink:href="#b" x="-.004" y="30.369"/><use xlink:href="#2"/><use xlink:href="#3" y="2.171"/><use xlink:href="#4" y="4.342"/><use xlink:href="#5" y="6.513"/><use xlink:href="#6" y="8.684"/><use xlink:href="#7" y="10.855"/><use xlink:href="#8" y="13.026"/><use xlink:href="#10" y="15.197"/><use xlink:href="#11" y="17.368"/><use xlink:href="#7" y="19.539"/><use xlink:href="#8" y="21.71"/><use xlink:href="#6" y="23.881"/><use xlink:href="#12" y="26.052"/><use xlink:href="#13" y="28.223"/></svg><svg x="3144"><use xlink:href="#a"/><use xlink:href="#b" x="13.996" y="41.224"/><use xlink:href="#2"/><use xlink:href="#3" y="2.171"/><use xlink:href="#4" y="4.342"/><use xlink:href="#5" y="6.513"/><use xlink:href="#6" y="8.684"/><use xlink:href="#7" y="10.855"/><use xlink:href="#8" y="13.026"/><use xlink:href="#10" y="15.197"/><use xlink:href="#11" y="17.368"/><use xlink:href="#7" y="19.539"/><use xlink:href="#8" y="21.71"/><use xlink:href="#6" y="23.881"/><use xlink:href="#12" y="26.052"/><use xlink:href="#13" y="28.223"/><use xlink:href="#14" y="30.394"/><use xlink:href="#5" y="32.565"/><use xlink:href="#6" y="34.736"/><use xlink:href="#7" y="36.907"/><use xlink:href="#8" y="39.078"/><use xlink:href="#9" y="41.249"/></svg><svg x="3275"><use xlink:href="#a"/><use xlink:href="#b" x="14.996" y="41.224"/><use xlink:href="#2"/><use xlink:href="#3" y="2.171"/><use xlink:href="#4" y="4.342"/><use xlink:href="#5" y="6.513"/><use xlink:href="#6" y="8.684"/><use xlink:href="#7" y="10.855"/><use xlink:href="#8" y="13.026"/><use xlink:href="#10" y="15.197"/><use xlink:href="#11" y="17.368"/><use xlink:href="#7" y="19.539"/><use xlink:href="#8" y="21.71"/><use xlink:href="#6" y="23.881"/><use xlink:href="#12" y="26.052"/><use xlink:href="#13" y="28.223"/><use xlink:href="#14" y="30.394"/><use xlink:href="#5" y="32.565"/><use xlink:href="#6" y="34.736"/><use xlink:href="#7" y="36.907"/><use xlink:href="#8" y="39.078"/><use xlink:href="#15" y="41.249"/></svg><svg x="3406"><use xlink:href="#a"/><use xlink:href="#b" x="-.004" y="43.395"/><use xlink:href="#2"/><use xlink:href="#3" y="2.171"/><use xlink:href="#4" y="4.342"/><use xlink:href="#5" y="6.513"/><use xlink:href="#6" y="8.684"/><use xlink:href="#7" y="10.855"/><use xlink:href="#8" y="13.026"/><use xlink:href="#10" y="15.197"/><use xlink:href="#11" y="17.368"/><use xlink:href="#7" y="19.539"/><use xlink:href="#8" y="21.71"/><use xlink:href="#6" y="23.881"/><use xlink:href="#12" y="26.052"/><use xlink:href="#13" y="28.223"/><use xlink:href="#14" y="30.394"/><use xlink:href="#5" y="32.565"/><use xlink:href="#6" y="34.736"/><use xlink:href="#7" y="36.907"/><use xlink:href="#8" y="39.078"/><use xlink:href="#15" y="41.249"/></svg><svg x="3537"><use xlink:href="#a"/><use xlink:href="#b" x="34.996" y="43.395"/><use xlink:href="#2"/><use xlink:href="#3" y="2.171"/><use xlink:href="#4" y="4.342"/><use xlink:href="#5" y="6.513"/><use xlink:href="#6" y="8.684"/><use xlink:href="#7" y="10.855"/><use xlink:href="#8" y="13.026"/><use xlink:href="#10" y="15.197"/><use xlink:href="#11" y="17.368"/><use xlink:href="#7" y="19.539"/><use xlink:href="#8" y="21.71"/><use xlink:href="#6" y="23.881"/><use xlink:href="#12" y="26.052"/><use xlink:href="#13" y="28.223"/><use xlink:href="#14" y="30.394"/><use xlink:href="#5" y="32.565"/><use xlink:href="#6" y="34.736"/><use xlink:href="#7" y="36.907"/><use xlink:href="#8" y="39.078"/><use xlink:href="#15" y="41.249"/><text y="45.09" class="f">Replace</text><text x="8.016" y="45.09" class="f">pattern</text><text x="16.032" y="45.09" class="f">&quot;.rubo.yml&quot;</text><text x="28.056" y="45.09" class="f">with:</text></svg><svg x="3668"><use xlink:href="#a"/><use xlink:href="#b" x="35.996" y="43.395"/><use xlink:href="#2"/><use xlink:href="#3" y="2.171"/><use xlink:href="#4" y="4.342"/><use xlink:href="#5" y="6.513"/><use xlink:href="#6" y="8.684"/><use xlink:href="#7" y="10.855"/><use xlink:href="#8" y="13.026"/><use xlink:href="#10" y="15.197"/><use xlink:href="#11" y="17.368"/><use xlink:href="#7" y="19.539"/><use xlink:href="#8" y="21.71"/><use xlink:href="#6" y="23.881"/><use xlink:href="#12" y="26.052"/><use xlink:href="#13" y="28.223"/><use xlink:href="#14" y="30.394"/><use xlink:href="#5" y="32.565"/><use xlink:href="#6" y="34.736"/><use xlink:href="#7" y="36.907"/><use xlink:href="#8" y="39.078"/><use xlink:href="#15" y="41.249"/><text y="45.09" class="f">Replace</text><text x="8.016" y="45.09" class="f">pattern</text><text x="16.032" y="45.09" class="f">&quot;.rubo.yml&quot;</text><text x="28.056" y="45.09" class="f">with:</text><text x="35.07" y="45.09" class="f">.</text></svg><svg x="3799"><use xlink:href="#a"/><use xlink:href="#b" x="36.996" y="43.395"/><use xlink:href="#2"/><use xlink:href="#3" y="2.171"/><use xlink:href="#4" y="4.342"/><use xlink:href="#5" y="6.513"/><use xlink:href="#6" y="8.684"/><use xlink:href="#7" y="10.855"/><use xlink:href="#8" y="13.026"/><use xlink:href="#10" y="15.197"/><use xlink:href="#11" y="17.368"/><use xlink:href="#7" y="19.539"/><use xlink:href="#8" y="21.71"/><use xlink:href="#6" y="23.881"/><use xlink:href="#12" y="26.052"/><use xlink:href="#13" y="28.223"/><use xlink:href="#14" y="30.394"/><use xlink:href="#5" y="32.565"/><use xlink:href="#6" y="34.736"/><use xlink:href="#7" y="36.907"/><use xlink:href="#8" y="39.078"/><use xlink:href="#15" y="41.249"/><text y="45.09" class="f">Replace</text><text x="8.016" y="45.09" class="f">pattern</text><text x="16.032" y="45.09" class="f">&quot;.rubo.yml&quot;</text><text x="28.056" y="45.09" class="f">with:</text><text x="35.07" y="45.09" class="f">.r</text></svg><svg x="3930"><use xlink:href="#a"/><use xlink:href="#b" x="37.996" y="43.395"/><use xlink:href="#2"/><use xlink:href="#3" y="2.171"/><use xlink:href="#4" y="4.342"/><use xlink:href="#5" y="6.513"/><use xlink:href="#6" y="8.684"/><use xlink:href="#7" y="10.855"/><use xlink:href="#8" y="13.026"/><use xlink:href="#10" y="15.197"/><use xlink:href="#11" y="17.368"/><use xlink:href="#7" y="19.539"/><use xlink:href="#8" y="21.71"/><use xlink:href="#6" y="23.881"/><use xlink:href="#12" y="26.052"/><use xlink:href="#13" y="28.223"/><use xlink:href="#14" y="30.394"/><use xlink:href="#5" y="32.565"/><use xlink:href="#6" y="34.736"/><use xlink:href="#7" y="36.907"/><use xlink:href="#8" y="39.078"/><use xlink:href="#15" y="41.249"/><text y="45.09" class="f">Replace</text><text x="8.016" y="45.09" class="f">pattern</text><text x="16.032" y="45.09" class="f">&quot;.rubo.yml&quot;</text><text x="28.056" y="45.09" class="f">with:</text><text x="35.07" y="45.09" class="f">.ru</text></svg><svg x="4061"><use xlink:href="#a"/><use xlink:href="#b" x="38.996" y="43.395"/><use xlink:href="#2"/><use xlink:href="#3" y="2.171"/><use xlink:href="#4" y="4.342"/><use xlink:href="#5" y="6.513"/><use xlink:href="#6" y="8.684"/><use xlink:href="#7" y="10.855"/><use xlink:href="#8" y="13.026"/><use xlink:href="#10" y="15.197"/><use xlink:href="#11" y="17.368"/><use xlink:href="#7" y="19.539"/><use xlink:href="#8" y="21.71"/><use xlink:href="#6" y="23.881"/><use xlink:href="#12" y="26.052"/><use xlink:href="#13" y="28.223"/><use xlink:href="#14" y="30.394"/><use xlink:href="#5" y="32.565"/><use xlink:href="#6" y="34.736"/><use xlink:href="#7" y="36.907"/><use xlink:href="#8" y="39.078"/><use xlink:href="#15" y="41.249"/><text y="45.09" class="f">Replace</text><text x="8.016" y="45.09" class="f">pattern</text><text x="16.032" y="45.09" class="f">&quot;.rubo.yml&quot;</text><text x="28.056" y="45.09" class="f">with:</text><text x="35.07" y="45.09" class="f">.rub</text></svg><svg x="4192"><use xlink:href="#a"/><use xlink:href="#b" x="39.996" y="43.395"/><use xlink:href="#2"/><use xlink:href="#3" y="2.171"/><use xlink:href="#4" y="4.342"/><use xlink:href="#5" y="6.513"/><use xlink:href="#6" y="8.684"/><use xlink:href="#7" y="10.855"/><use xlink:href="#8" y="13.026"/><use xlink:href="#10" y="15.197"/><use xlink:href="#11" y="17.368"/><use xlink:href="#7" y="19.539"/><use xlink:href="#8" y="21.71"/><use xlink:href="#6" y="23.881"/><use xlink:href="#12" y="26.052"/><use xlink:href="#13" y="28.223"/><use xlink:href="#14" y="30.394"/><use xlink:href="#5" y="32.565"/><use xlink:href="#6" y="34.736"/><use xlink:href="#7" y="36.907"/><use xlink:href="#8" y="39.078"/><use xlink:href="#15" y="41.249"/><text y="45.09" class="f">Replace</text><text x="8.016" y="45.09" class="f">pattern</text><text x="16.032" y="45.09" class="f">&quot;.rubo.yml&quot;</text><text x="28.056" y="45.09" class="f">with:</text><text x="35.07" y="45.09" class="f">.rubo</text></svg><svg x="4323"><use xlink:href="#a"/><use xlink:href="#b" x="40.996" y="43.395"/><use xlink:href="#2"/><use xlink:href="#3" y="2.171"/><use xlink:href="#4" y="4.342"/><use xlink:href="#5" y="6.513"/><use xlink:href="#6" y="8.684"/><use xlink:href="#7" y="10.855"/><use xlink:href="#8" y="13.026"/><use xlink:href="#10" y="15.197"/><use xlink:href="#11" y="17.368"/><use xlink:href="#7" y="19.539"/><use xlink:href="#8" y="21.71"/><use xlink:href="#6" y="23.881"/><use xlink:href="#12" y="26.052"/><use xlink:href="#13" y="28.223"/><use xlink:href="#14" y="30.394"/><use xlink:href="#5" y="32.565"/><use xlink:href="#6" y="34.736"/><use xlink:href="#7" y="36.907"/><use xlink:href="#8" y="39.078"/><use xlink:href="#15" y="41.249"/><text y="45.09" class="f">Replace</text><text x="8.016" y="45.09" class="f">pattern</text><text x="16.032" y="45.09" class="f">&quot;.rubo.yml&quot;</text><text x="28.056" y="45.09" class="f">with:</text><text x="35.07" y="45.09" class="f">.ruboc</text></svg><svg x="4454"><use xlink:href="#a"/><use xlink:href="#b" x="41.996" y="43.395"/><use xlink:href="#2"/><use xlink:href="#3" y="2.171"/><use xlink:href="#4" y="4.342"/><use xlink:href="#5" y="6.513"/><use xlink:href="#6" y="8.684"/><use xlink:href="#7" y="10.855"/><use xlink:href="#8" y="13.026"/><use xlink:href="#10" y="15.197"/><use xlink:href="#11" y="17.368"/><use xlink:href="#7" y="19.539"/><use xlink:href="#8" y="21.71"/><use xlink:href="#6" y="23.881"/><use xlink:href="#12" y="26.052"/><use xlink:href="#13" y="28.223"/><use xlink:href="#14" y="30.394"/><use xlink:href="#5" y="32.565"/><use xlink:href="#6" y="34.736"/><use xlink:href="#7" y="36.907"/><use xlink:href="#8" y="39.078"/><use xlink:href="#15" y="41.249"/><text y="45.09" class="f">Replace</text><text x="8.016" y="45.09" class="f">pattern</text><text x="16.032" y="45.09" class="f">&quot;.rubo.yml&quot;</text><text x="28.056" y="45.09" class="f">with:</text><text x="35.07" y="45.09" class="f">.ruboco</text></svg><svg x="4585"><use xlink:href="#a"/><use xlink:href="#b" x="42.996" y="43.395"/><use xlink:href="#2"/><use xlink:href="#3" y="2.171"/><use xlink:href="#4" y="4.342"/><use xlink:href="#5" y="6.513"/><use xlink:href="#6" y="8.684"/><use xlink:href="#7" y="10.855"/><use xlink:href="#8" y="13.026"/><use xlink:href="#10" y="15.197"/><use xlink:href="#11" y="17.368"/><use xlink:href="#7" y="19.539"/><use xlink:href="#8" y="21.71"/><use xlink:href="#6" y="23.881"/><use xlink:href="#12" y="26.052"/><use xlink:href="#13" y="28.223"/><use xlink:href="#14" y="30.394"/><use xlink:href="#5" y="32.565"/><use xlink:href="#6" y="34.736"/><use xlink:href="#7" y="36.907"/><use xlink:href="#8" y="39.078"/><use xlink:href="#15" y="41.249"/><text y="45.09" class="f">Replace</text><text x="8.016" y="45.09" class="f">pattern</text><text x="16.032" y="45.09" class="f">&quot;.rubo.yml&quot;</text><text x="28.056" y="45.09" class="f">with:</text><text x="35.07" y="45.09" class="f">.rubocop</text></svg><svg x="4716"><use xlink:href="#a"/><use xlink:href="#b" x="43.996" y="43.395"/><use xlink:href="#2"/><use xlink:href="#3" y="2.171"/><use xlink:href="#4" y="4.342"/><use xlink:href="#5" y="6.513"/><use xlink:href="#6" y="8.684"/><use xlink:href="#7" y="10.855"/><use xlink:href="#8" y="13.026"/><use xlink:href="#10" y="15.197"/><use xlink:href="#11" y="17.368"/><use xlink:href="#7" y="19.539"/><use xlink:href="#8" y="21.71"/><use xlink:href="#6" y="23.881"/><use xlink:href="#12" y="26.052"/><use xlink:href="#13" y="28.223"/><use xlink:href="#14" y="30.394"/><use xlink:href="#5" y="32.565"/><use xlink:href="#6" y="34.736"/><use xlink:href="#7" y="36.907"/><use xlink:href="#8" y="39.078"/><use xlink:href="#15" y="41.249"/><text y="45.09" class="f">Replace</text><text x="8.016" y="45.09" class="f">pattern</text><text x="16.032" y="45.09" class="f">&quot;.rubo.yml&quot;</text><text x="28.056" y="45.09" class="f">with:</text><text x="35.07" y="45.09" class="f">.rubocop.</text></svg><svg x="4847"><use xlink:href="#a"/><use xlink:href="#b" x="44.996" y="43.395"/><use xlink:href="#2"/><use xlink:href="#3" y="2.171"/><use xlink:href="#4" y="4.342"/><use xlink:href="#5" y="6.513"/><use xlink:href="#6" y="8.684"/><use xlink:href="#7" y="10.855"/><use xlink:href="#8" y="13.026"/><use xlink:href="#10" y="15.197"/><use xlink:href="#11" y="17.368"/><use xlink:href="#7" y="19.539"/><use xlink:href="#8" y="21.71"/><use xlink:href="#6" y="23.881"/><use xlink:href="#12" y="26.052"/><use xlink:href="#13" y="28.223"/><use xlink:href="#14" y="30.394"/><use xlink:href="#5" y="32.565"/><use xlink:href="#6" y="34.736"/><use xlink:href="#7" y="36.907"/><use xlink:href="#8" y="39.078"/><use xlink:href="#15" y="41.249"/><text y="45.09" class="f">Replace</text><text x="8.016" y="45.09" class="f">pattern</text><text x="16.032" y="45.09" class="f">&quot;.rubo.yml&quot;</text><text x="28.056" y="45.09" class="f">with:</text><text x="35.07" y="45.09" class="f">.rubocop.y</text></svg><svg x="4978"><use xlink:href="#a"/><use xlink:href="#b" x="45.996" y="43.395"/><use xlink:href="#2"/><use xlink:href="#3" y="2.171"/><use xlink:href="#4" y="4.342"/><use xlink:href="#5" y="6.513"/><use xlink:href="#6" y="8.684"/><use xlink:href="#7" y="10.855"/><use xlink:href="#8" y="13.026"/><use xlink:href="#10" y="15.197"/><use xlink:href="#11" y="17.368"/><use xlink:href="#7" y="19.539"/><use xlink:href="#8" y="21.71"/><use xlink:href="#6" y="23.881"/><use xlink:href="#12" y="26.052"/><use xlink:href="#13" y="28.223"/><use xlink:href="#14" y="30.394"/><use xlink:href="#5" y="32.565"/><use xlink:href="#6" y="34.736"/><use xlink:href="#7" y="36.907"/><use xlink:href="#8" y="39.078"/><use xlink:href="#15" y="41.249"/><text y="45.09" class="f">Replace</text><text x="8.016" y="45.09" class="f">pattern</text><text x="16.032" y="45.09" class="f">&quot;.rubo.yml&quot;</text><text x="28.056" y="45.09" class="f">with:</text><text x="35.07" y="45.09" class="f">.rubocop.ym</text></svg><svg x="5109"><use xlink:href="#a"/><use xlink:href="#b" x="46.996" y="43.395"/><use xlink:href="#2"/><use xlink:href="#3" y="2.171"/><use xlink:href="#4" y="4.342"/><use xlink:href="#5" y="6.513"/><use xlink:href="#6" y="8.684"/><use xlink:href="#7" y="10.855"/><use xlink:href="#8" y="13.026"/><use xlink:href="#10" y="15.197"/><use xlink:href="#11" y="17.368"/><use xlink:href="#7" y="19.539"/><use xlink:href="#8" y="21.71"/><use xlink:href="#6" y="23.881"/><use xlink:href="#12" y="26.052"/><use xlink:href="#13" y="28.223"/><use xlink:href="#14" y="30.394"/><use xlink:href="#5" y="32.565"/><use xlink:href="#6" y="34.736"/><use xlink:href="#7" y="36.907"/><use xlink:href="#8" y="39.078"/><use xlink:href="#15" y="41.249"/><use xlink:href="#16" y="43.42"/></svg><svg x="5240"><use xlink:href="#a"/><use xlink:href="#b" x="-.004" y="45.566"/><use xlink:href="#2"/><use xlink:href="#3" y="2.171"/><use xlink:href="#4" y="4.342"/><use xlink:href="#5" y="6.513"/><use xlink:href="#6" y="8.684"/><use xlink:href="#7" y="10.855"/><use xlink:href="#8" y="13.026"/><use xlink:href="#10" y="15.197"/><use xlink:href="#11" y="17.368"/><use xlink:href="#7" y="19.539"/><use xlink:href="#8" y="21.71"/><use xlink:href="#6" y="23.881"/><use xlink:href="#12" y="26.052"/><use xlink:href="#13" y="28.223"/><use xlink:href="#14" y="30.394"/><use xlink:href="#5" y="32.565"/><use xlink:href="#6" y="34.736"/><use xlink:href="#7" y="36.907"/><use xlink:href="#8" y="39.078"/><use xlink:href="#15" y="41.249"/><use xlink:href="#16" y="43.42"/></svg><svg x="5371"><use xlink:href="#a"/><use xlink:href="#b" x="15.996" y="45.566"/><use xlink:href="#2"/><use xlink:href="#3" y="2.171"/><use xlink:href="#4" y="4.342"/><use xlink:href="#5" y="6.513"/><use xlink:href="#6" y="8.684"/><use xlink:href="#7" y="10.855"/><use xlink:href="#8" y="13.026"/><use xlink:href="#10" y="15.197"/><use xlink:href="#11" y="17.368"/><use xlink:href="#7" y="19.539"/><use xlink:href="#8" y="21.71"/><use xlink:href="#6" y="23.881"/><use xlink:href="#12" y="26.052"/><use xlink:href="#13" y="28.223"/><use xlink:href="#14" y="30.394"/><use xlink:href="#5" y="32.565"/><use xlink:href="#6" y="34.736"/><use xlink:href="#7" y="36.907"/><use xlink:href="#8" y="39.078"/><use xlink:href="#15" y="41.249"/><use xlink:href="#16" y="43.42"/><text y="47.261" class="f">Commit</text><text x="7.014" y="47.261" class="f">changes?</text></svg><svg x="5502"><use xlink:href="#a"/><use xlink:href="#b" x="16.996" y="45.566"/><use xlink:href="#2"/><use xlink:href="#3" y="2.171"/><use xlink:href="#4" y="4.342"/><use xlink:href="#5" y="6.513"/><use xlink:href="#6" y="8.684"/><use xlink:href="#7" y="10.855"/><use xlink:href="#8" y="13.026"/><use xlink:href="#10" y="15.197"/><use xlink:href="#11" y="17.368"/><use xlink:href="#7" y="19.539"/><use xlink:href="#8" y="21.71"/><use xlink:href="#6" y="23.881"/><use xlink:href="#12" y="26.052"/><use xlink:href="#13" y="28.223"/><use xlink:href="#14" y="30.394"/><use xlink:href="#5" y="32.565"/><use xlink:href="#6" y="34.736"/><use xlink:href="#7" y="36.907"/><use xlink:href="#8" y="39.078"/><use xlink:href="#15" y="41.249"/><use xlink:href="#16" y="43.42"/><use xlink:href="#17" y="45.591"/></svg><svg x="5633"><use xlink:href="#a"/><use xlink:href="#b" x="-.004" y="47.737"/><use xlink:href="#2"/><use xlink:href="#3" y="2.171"/><use xlink:href="#4" y="4.342"/><use xlink:href="#5" y="6.513"/><use xlink:href="#6" y="8.684"/><use xlink:href="#7" y="10.855"/><use xlink:href="#8" y="13.026"/><use xlink:href="#10" y="15.197"/><use xlink:href="#11" y="17.368"/><use xlink:href="#7" y="19.539"/><use xlink:href="#8" y="21.71"/><use xlink:href="#6" y="23.881"/><use xlink:href="#12" y="26.052"/><use xlink:href="#13" y="28.223"/><use xlink:href="#14" y="30.394"/><use xlink:href="#5" y="32.565"/><use xlink:href="#6" y="34.736"/><use xlink:href="#7" y="36.907"/><use xlink:href="#8" y="39.078"/><use xlink:href="#15" y="41.249"/><use xlink:href="#16" y="43.42"/><use xlink:href="#17" y="45.591"/></svg><svg x="5764"><use xlink:href="#a"/><use xlink:href="#b" x="-.004" y="47.737"/><use xlink:href="#2"/><use xlink:href="#3" y="2.171"/><use xlink:href="#4" y="4.342"/><use xlink:href="#5" y="6.513"/><use xlink:href="#6" y="8.684"/><use xlink:href="#7" y="10.855"/><use xlink:href="#8" y="13.026"/><use xlink:href="#10" y="15.197"/><use xlink:href="#11" y="17.368"/><use xlink:href="#7" y="19.539"/><use xlink:href="#8" y="21.71"/><use xlink:href="#6" y="23.881"/><use xlink:href="#12" y="26.052"/><use xlink:href="#13" y="28.223"/><use xlink:href="#14" y="30.394"/><use xlink:href="#5" y="32.565"/><use xlink:href="#6" y="34.736"/><use xlink:href="#7" y="36.907"/><use xlink:href="#8" y="39.078"/><use xlink:href="#15" y="41.249"/><use xlink:href="#16" y="43.42"/><use xlink:href="#17" y="45.591"/></svg><svg x="5895"><use xlink:href="#a"/><use xlink:href="#b" x="9.996" y="47.737"/><use xlink:href="#2"/><use xlink:href="#3" y="2.171"/><use xlink:href="#4" y="4.342"/><use xlink:href="#5" y="6.513"/><use xlink:href="#6" y="8.684"/><use xlink:href="#7" y="10.855"/><use xlink:href="#8" y="13.026"/><use xlink:href="#10" y="15.197"/><use xlink:href="#11" y="17.368"/><use xlink:href="#7" y="19.539"/><use xlink:href="#8" y="21.71"/><use xlink:href="#6" y="23.881"/><use xlink:href="#12" y="26.052"/><use xlink:href="#13" y="28.223"/><use xlink:href="#14" y="30.394"/><use xlink:href="#5" y="32.565"/><use xlink:href="#6" y="34.736"/><use xlink:href="#7" y="36.907"/><use xlink:href="#8" y="39.078"/><use xlink:href="#15" y="41.249"/><use xlink:href="#16" y="43.42"/><use xlink:href="#17" y="45.591"/><use xlink:href="#1" y="47.762"/></svg><svg x="6026"><use xlink:href="#a"/><use xlink:href="#b" x="-.004" y="49.908"/><use xlink:href="#2"/><use xlink:href="#3" y="2.171"/><use xlink:href="#4" y="4.342"/><use xlink:href="#5" y="6.513"/><use xlink:href="#6" y="8.684"/><use xlink:href="#7" y="10.855"/><use xlink:href="#8" y="13.026"/><use xlink:href="#10" y="15.197"/><use xlink:href="#11" y="17.368"/><use xlink:href="#7" y="19.539"/><use xlink:href="#8" y="21.71"/><use xlink:href="#6" y="23.881"/><use xlink:href="#12" y="26.052"/><use xlink:href="#13" y="28.223"/><use xlink:href="#14" y="30.394"/><use xlink:href="#5" y="32.565"/><use xlink:href="#6" y="34.736"/><use xlink:href="#7" y="36.907"/><use xlink:href="#8" y="39.078"/><use xlink:href="#15" y="41.249"/><use xlink:href="#16" y="43.42"/><use xlink:href="#17" y="45.591"/><use xlink:href="#1" y="47.762"/></svg></svg></g></g></svg></svg>